<?xml version='1.0' encoding='ISO-8859-1' ?>
<!-- Generator: Savage Cad2Svg Converter -->
<!DOCTYPE svg PUBLIC "-//W3C//DTD SVG 20010904//EN" "http://www.w3.org/TR/2001/REC-SVG-20010904/DTD/svg10.dtd" [
  <!ENTITY Layer_1_GRAPHICS "color:#000000;stroke-width:.0000000000001;stroke:currentColor;fill:none">
  <!ENTITY Layer_1_WCOLOR "color:#00FFFF;stroke-width:.0000000000001;stroke:currentColor;fill:none">
  <!ENTITY Layer_1_CKTNUM "color:#FF0000;stroke-width:.0000000000001;stroke:currentColor;fill:none">
  <!ENTITY Layer_1_CONN "color:#00FF00;stroke-width:.0000000000001;stroke:currentColor;fill:none">
  <!ENTITY Layer_1_BESTVIEW "color:#FFFF00;stroke-width:.0000000000001;stroke:currentColor;fill:none">
  <!ENTITY Layer_1_COMPNAME "color:#FF0000;stroke-width:.0000000000001;stroke:currentColor;fill:none">
  <!ENTITY Layer_1_MISC "color:#FF00FF;stroke-width:.0000000000001;stroke:currentColor;fill:none">
  <!ENTITY Def_Layer_1_0 "stroke-width:.0000000000001; stroke:currentColor;fill:none">
  <!ENTITY Layer_1_REF "color:#00FF00;stroke-width:.0000000000001;stroke:currentColor;fill:none">
  <!ENTITY Layer_1_GROUND "color:#FFFF00;stroke-width:.0000000000001;stroke:currentColor;fill:none">
  <!ENTITY Layer_1_SPLICE "color:#FFFF00;stroke-width:.0000000000001;stroke:currentColor;fill:none">
  <!ENTITY Layer_1_COMPLOC "color:#00FF00;stroke-width:.0000000000001;stroke:currentColor;fill:none">
  <!ENTITY Layer_1_0 "color:#000000;stroke-width:.0000000000001;stroke:currentColor;fill:none">
  <!ENTITY st1 "color:#000000;stroke:currentColor;stroke-width:0.02400000000000;">
  <!ENTITY st2 "color:#000000;stroke:currentColor;stroke-width:0.01000000000000;">
  <!ENTITY st3 "font-family:Arial;font-size:0.125px;text-anchor:end;color:#000000;fill:currentColor;stroke-width:0">
  <!ENTITY st5 "font-family:Arial;font-size:0.125px;text-anchor:start;color:#000000;fill:currentColor;stroke-width:0">
  <!ENTITY st11 "font-family:Arial;font-size:0.125px;text-anchor:middle;color:#000000;fill:currentColor;stroke-width:0">
  <!ENTITY st12 "color:#FF0000;stroke:currentColor;stroke-width:0.02500000000000;">
  <!ENTITY st13 "color:#FF8000;stroke:currentColor;stroke-width:0.02500000000000;">
  <!ENTITY st15 "stroke-width:0.03128100000000;">
  <!ENTITY st16 "color:#000000">
  <!ENTITY st17 "color:#FF0040;stroke:currentColor;stroke-width:0.02500000000000;">
  <!ENTITY st18 "color:#000000;stroke:currentColor;stroke-width:0.00500000000000;">
  <!ENTITY st19 "color:#00FFFF;stroke:currentColor;stroke-width:0.02500000000000;">
  <!ENTITY st22 "color:#000000;stroke:currentColor;stroke-width:0.01008000000000;">
  <!ENTITY st23 "color:#000000;stroke:currentColor;stroke-width:0.02500000000000;">
  <!ENTITY st24 "stroke:#000000">
  <!ENTITY st25 "color:#000000;stroke:currentColor;fill:currentColor;fill-rule:nonzero">
  <!ENTITY st26 "color:#323232;stroke:currentColor;stroke-width:0.02500000000000;">
  <!ENTITY st27 "color:#D2D2D2;stroke:currentColor;stroke-width:0.02500000000000;">
  <!ENTITY st28 "color:#B28600;stroke:currentColor;stroke-width:0.02500000000000;">
  <!ENTITY st29 "color:#FFFF00;stroke:currentColor;stroke-width:0.02500000000000;">
  <!ENTITY st30 "color:#00B200;stroke:currentColor;stroke-width:0.02500000000000;">
  <!ENTITY st31 "color:#E5AC00;stroke:currentColor;stroke-width:0.02500000000000;">
  <!ENTITY st33 "color:#AFAFAF;stroke:currentColor;stroke-width:0.02500000000000;">
  <!ENTITY st34 "color:#002CB2;stroke:currentColor;stroke-width:0.02500000000000;">
  <!ENTITY st35 "color:#B28600;stroke:currentColor;stroke-width:0.01650000000000;">
  <!ENTITY st36 "color:#D2D2D2;stroke:currentColor;stroke-width:0.00850000000000;">
  <!ENTITY st37 "color:#E5AC00;stroke:currentColor;stroke-width:0.01650000000000;">
  <!ENTITY st38 "color:#323232;stroke:currentColor;stroke-width:0.00850000000000;">
  <!ENTITY st39 "color:#323232;stroke:currentColor;stroke-width:0.01650000000000;">
  <!ENTITY st40 "color:#AFAFAF;stroke:currentColor;stroke-width:0.01650000000000;">
  <!ENTITY st41 "color:#FF8000;stroke:currentColor;stroke-width:0.01650000000000;">
  <!ENTITY st44 "color:#000000;stroke:currentColor;stroke-width:0.04200000000000;">
  <!ENTITY st45 "stroke-width:0.01000000000000;">
  <!ENTITY st46 "font-family:Arial;font-size:0.125px;text-anchor:middle;color:#000000;fill:currentColor;stroke-width:0">
]>
<?AdobeSVGViewer save="disable"?>
<svg id="svgAll" width="900" xmlns="http://www.w3.org/2000/svg" height="1100" viewBox="-0.725 -18.9 16.24 19.8" xmlns:cs="http://www.savagesoftware.com/cad2svg" xml:space="preserve" xmlns:xlink="http://www.w3.org/1999/xlink" text-rendering="optimizeSpeed" image-rendering="optimizeSpeed" shape-rendering="optimizeSpeed" preserveAspectRatio="xMidYMid">
<rect x="-0.725" y="-18.9" fill="#FFFFFF" width="16.24" height="19.8"/>
<defs>
<g id="SP2_BLK_1_1C">
<g id="Def_Layer_1_0" style="&Def_Layer_1_0;">
<g id="Lwpline_16">
<path d="M-0.015641 0 A0.015641 0.015641 0 0 0 0.015641 0 A0.015641 0.015641 0 0 0 -0.015641 0 " style="&st15;"/>
</g>
</g>
</g>
<g id="S8_BLK_1_149D">
<g id="Def_Layer_1_0" style="&Def_Layer_1_0;">
<g id="Lwpline_261">
<path d="M0 0.084160844 A0.042080422 0.042080422 0 0 0 0 0 " style="&st45;"/>
</g>
<g id="Lwpline_262">
<path d="M0 0.16832169 A0.042080422 0.042080422 0 0 0 0 0.084160844 " style="&st45;"/>
</g>
<g id="Lwpline_263">
<path d="M0 0.25248253 A0.042080422 0.042080422 0 0 0 0 0.16832169 " style="&st45;"/>
</g>
<g id="Lwpline_264">
<path d="M0 0.33664338 A0.042080422 0.042080422 0 0 0 0 0.25248253 " style="&st45;"/>
</g>
<g id="Lwpline_265">
<path d="M0.077105385 0.00017396081 L0.077105385 0.33681734 " style="&st45;"/>
</g>
<g id="Lwpline_266">
<path d="M0.12525306 0.00017396081 L0.12525306 0.33681734 " style="&st45;"/>
</g>
</g>
</g>
</defs>
<g>
<g id="Layer_1_GRAPHICS" style="&Layer_1_GRAPHICS;">
<g id="Lwpline_1">
<path d="M0 0 L14.5 0 L14.5 -18 L0 -18 L0 0 " style="&st1;"/>
</g>
<g id="Lwpline_2">
<path d="M2.525 -12.6 L0.16476002 -12.6 L0.16476002 -4 L2.525 -4 L2.525 -12.6 " style="&st2;"/>
</g>
<g id="TEXT_1" style="&st3;">
<text x="2.475" y="-12.355">YAW RATE SENS TEST CTRL</text>
</g>
<g id="TEXT_5" style="&st3;">
<text x="2.475" y="-12.155">SENS SIG</text>
</g>
<g id="TEXT_8" style="&st3;">
<text x="2.475" y="-11.955">LOW REF</text>
</g>
<g id="TEXT_11" style="&st3;">
<text x="2.475" y="-11.755">SENS SIG</text>
</g>
<g id="TEXT_14" style="&st3;">
<text x="2.475" y="-11.555">LOW REF</text>
</g>
<g id="TEXT_17" style="&st3;">
<text x="2.475" y="-11.355">STOP LAMP SW SIG</text>
</g>
<g id="TEXT_20" style="&st3;">
<text x="2.475" y="-11.155">ENGINE SPD SIG</text>
</g>
<g id="TEXT_23" style="&st3;">
<text x="2.475" y="-10.955">IGN VOLT</text>
</g>
<g id="TEXT_26" style="&st3;">
<text x="2.475" y="-10.755">DELIVERED TORQUE SIG</text>
</g>
<g id="TEXT_29" style="&st3;">
<text x="2.475" y="-10.555">LATERAL ACCELEROMETER SIG</text>
</g>
<g id="TEXT_32" style="&st3;">
<text x="2.4750002" y="-10.090771">HI SPD SERIAL DATA (-)</text>
</g>
<g id="TEXT_37" style="&st3;">
<text x="2.475" y="-9.355">BATT POS VOLT</text>
</g>
<g id="TEXT_40" style="&st3;">
<text x="2.475" y="-9.155">BATT POS VOLT</text>
</g>
<g id="TEXT_43" style="&st3;">
<text x="2.475" y="-8.955">GROUND</text>
</g>
<g id="TEXT_46" style="&st3;">
<text x="2.475" y="-8.755">5-VOLT REF</text>
</g>
<g id="TEXT_49" style="&st3;">
<text x="2.475" y="-8.555">SENS SIG</text>
</g>
<g id="TEXT_52" style="&st3;">
<text x="2.475" y="-8.355">GROUND</text>
</g>
<g id="TEXT_55" style="&st3;">
<text x="2.475" y="-8.155">HI SPD SERIAL DATA (+)</text>
</g>
<g id="TEXT_58" style="&st3;">
<text x="2.475" y="-7.955">SENS SIG</text>
</g>
<g id="TEXT_61" style="&st3;">
<text x="2.475" y="-7.755">LOW REF</text>
</g>
<g id="TEXT_64" style="&st3;">
<text x="2.475" y="-7.555">SENS SIG</text>
</g>
<g id="TEXT_67" style="&st3;">
<text x="2.475" y="-7.355">LOW REF</text>
</g>
<g id="TEXT_70" style="&st3;">
<text x="2.475" y="-6.955">CLASS 2 SERIAL DATA</text>
</g>
<g id="TEXT_73" style="&st3;">
<text x="2.475" y="-6.755">YAW RATE SENS SIG</text>
</g>
<g id="TEXT_76" style="&st3;">
<text x="2.475" y="-6.555">REQUESTED TORQUE SIG</text>
</g>
<g id="TEXT_79" style="&st3;">
<text x="2.475" y="-6.355">5-VOLT REF</text>
</g>
<g id="TEXT_82" style="&st3;">
<text x="2.475" y="-6.155">ACTUATOR CTRL</text>
</g>
<g id="TEXT_85" style="&st3;">
<text x="2.475" y="-5.955">ACTUATOR SUPPLY VOLT</text>
</g>
<g id="TEXT_117" style="&st3;">
<text x="2.475" y="-5.355">BATT POS</text>
</g>
<g id="Lwpline_3">
<path d="M7.2 -16.678564 L7.2 -16.466593 " style="&st2;"/>
</g>
<g id="TEXT_128" style="&st5;">
<text x="7.2854098" y="-16.531917">40A</text>
</g>
<g id="Lwpline_4">
<path d="M8.8 -17.39826 L8.675 -17.39826 M8.6125 -17.39826 L8.4875 -17.39826 M8.425 -17.39826 L8.3 -17.39826 M8.2375 -17.39826 L8.1125 -17.39826 M8.05 -17.39826 L7.925 -17.39826 M7.8625 -17.39826 L7.7375 -17.39826 M7.675 -17.39826 L7.55 -17.39826 M7.4875 -17.39826 L7.3625 -17.39826 M7.3 -17.39826 L7.175 -17.39826 M7.1125 -17.39826 L6.9875 -17.39826 M6.925 -17.39826 L6.8 -17.39826 M6.7375 -17.39826 L6.6125 -17.39826 M6.55 -17.39826 L6.425 -17.39826 M6.3625 -17.39826 L6.2375 -17.39826 M6.175 -17.39826 L6.05 -17.39826 M5.9875 -17.39826 L5.8625 -17.39826 M5.8 -17.39826 L5.675 -17.39826 M5.6125 -17.39826 L5.4875 -17.39826 M5.425 -17.39826 L5.3 -17.39826 M5.2375 -17.39826 L5.1897955 -17.39826 L5.1897955 -17.27326 M5.1897955 -17.21076 L5.1897955 -17.08576 M5.1897955 -17.02326 L5.1897955 -16.89826 M5.1897955 -16.83576 L5.1897955 -16.71076 M5.1897955 -16.64826 L5.1897955 -16.52326 M5.1897955 -16.471076 L5.3147955 -16.471076 M5.3772955 -16.471076 L5.5022955 -16.471076 M5.5647955 -16.471076 L5.6897955 -16.471076 M5.7522955 -16.471076 L5.8772955 -16.471076 M5.9397955 -16.471076 L6.0647955 -16.471076 M6.1272955 -16.471076 L6.2522955 -16.471076 M6.3147955 -16.471076 L6.4397955 -16.471076 M6.5022955 -16.471076 L6.6272955 -16.471076 M6.6897955 -16.471076 L6.8147955 -16.471076 M6.8772955 -16.471076 L7.0022955 -16.471076 M7.0647955 -16.471076 L7.1897955 -16.471076 M7.2522955 -16.471076 L7.3772955 -16.471076 M7.4397955 -16.471076 L7.5647955 -16.471076 M7.6272955 -16.471076 L7.7522955 -16.471076 M7.8147955 -16.471076 L7.9397955 -16.471076 M8.0022955 -16.471076 L8.1272955 -16.471076 M8.1897955 -16.471076 L8.3147955 -16.471076 M8.3772955 -16.471076 L8.5022955 -16.471076 M8.5647955 -16.471076 L8.6897955 -16.471076 M8.7522955 -16.471076 L8.8 -16.471076 L8.8 -16.596076 M8.8 -16.658576 L8.8 -16.783576 M8.8 -16.846076 L8.8 -16.971076 M8.8 -17.033576 L8.8 -17.158576 M8.8 -17.221076 L8.8 -17.346076 M8.8 -17.39826 " style="&st2;"/>
</g>
<g id="Lwpline_5">
<path d="M13.4 -17.39826 L13.275 -17.39826 M13.2125 -17.39826 L13.0875 -17.39826 M13.025 -17.39826 L12.9 -17.39826 M12.8375 -17.39826 L12.7125 -17.39826 M12.65 -17.39826 L12.525 -17.39826 M12.4625 -17.39826 L12.3375 -17.39826 M12.275 -17.39826 L12.15 -17.39826 M12.0875 -17.39826 L11.9625 -17.39826 M11.9 -17.39826 L11.775 -17.39826 M11.7125 -17.39826 L11.5875 -17.39826 M11.525 -17.39826 L11.4 -17.39826 M11.3375 -17.39826 L11.2125 -17.39826 M11.15 -17.39826 L11.025 -17.39826 M10.9625 -17.39826 L10.8375 -17.39826 M10.775 -17.39826 L10.65 -17.39826 M10.5875 -17.39826 L10.4625 -17.39826 M10.4 -17.39826 L10.275 -17.39826 M10.2125 -17.39826 L10.0875 -17.39826 M10.025 -17.39826 L9.9 -17.39826 M9.8375 -17.39826 L9.7125 -17.39826 M9.65 -17.39826 L9.525 -17.39826 M9.5167731 -17.39826 L9.5167731 -17.27326 M9.5167731 -17.21076 L9.5167731 -17.08576 M9.5167731 -17.02326 L9.5167731 -16.89826 M9.5167731 -16.83576 L9.5167731 -16.71076 M9.5167731 -16.64826 L9.5167731 -16.52326 M9.5167731 -16.471076 L9.6417731 -16.471076 M9.7042731 -16.471076 L9.8292731 -16.471076 M9.8917731 -16.471076 L10.016773 -16.471076 M10.079273 -16.471076 L10.204273 -16.471076 M10.266773 -16.471076 L10.391773 -16.471076 M10.454273 -16.471076 L10.579273 -16.471076 M10.641773 -16.471076 L10.766773 -16.471076 M10.829273 -16.471076 L10.954273 -16.471076 M11.016773 -16.471076 L11.141773 -16.471076 M11.204273 -16.471076 L11.329273 -16.471076 M11.391773 -16.471076 L11.516773 -16.471076 M11.579273 -16.471076 L11.704273 -16.471076 M11.766773 -16.471076 L11.891773 -16.471076 M11.954273 -16.471076 L12.079273 -16.471076 M12.141773 -16.471076 L12.266773 -16.471076 M12.329273 -16.471076 L12.454273 -16.471076 M12.516773 -16.471076 L12.641773 -16.471076 M12.704273 -16.471076 L12.829273 -16.471076 M12.891773 -16.471076 L13.016773 -16.471076 M13.079273 -16.471076 L13.204273 -16.471076 M13.266773 -16.471076 L13.391773 -16.471076 M13.4 -16.471076 L13.4 -16.596076 M13.4 -16.658576 L13.4 -16.783576 M13.4 -16.846076 L13.4 -16.971076 M13.4 -17.033576 L13.4 -17.158576 M13.4 -17.221076 L13.4 -17.346076 M13.4 -17.39826 " style="&st2;"/>
</g>
<g id="Lwpline_6">
<path d="M11.8 -16.678564 L11.8 -16.466593 " style="&st2;"/>
</g>
<g id="TEXT_138" style="&st5;">
<text x="11.88541" y="-16.677617">40A</text>
</g>
<g id="Lwpline_7">
<path d="M2.6 -9.4 L9.8 -9.4 L9.8 -13.2 " style="&st12;"/>
</g>
<g id="Lwpline_8">
<path d="M5.299587 -13.369362 L5.3505858 -13.321592 L8.9521751 -13.321592 L9 -13.270621 L9.0478249 -13.321592 L12.649414 -13.321592 L12.700413 -13.369362 " style="&st2;"/>
</g>
<g id="Lwpline_9">
<path d="M7.2 -13.4 L7.2 -16.4 " style="&st12;"/>
</g>
<g id="Lwpline_10">
<path d="M2.6 -9.2 L10.6 -9.2 L10.6 -13.2 " style="&st13;"/>
</g>
<g id="Lwpline_11">
<path d="M8 -17.398608 L7.9999494 -17.017734 " style="&st2;"/>
</g>
<g id="Lwpline_12">
<path d="M8 -16.678564 L8 -16.466593 " style="&st2;"/>
</g>
<g id="TEXT_148" style="&st11;">
<text x="8.0048762" y="-17.617104">HOT AT</text>
</g>
<g id="TEXT_149" style="&st11;">
<text x="8.0089694" y="-17.471389">ALL TIMES</text>
</g>
<g id="TEXT_151" style="&st5;">
<text x="8.0854098" y="-16.531917">25A</text>
</g>
<g id="Lwpline_13">
<path d="M6 -17.398608 L5.9999494 -17.017734 " style="&st2;"/>
</g>
<g id="Lwpline_14">
<path d="M6 -16.678564 L6 -16.466593 " style="&st2;"/>
</g>
<g id="TEXT_156" style="&st11;">
<text x="6.0091666" y="-17.617104">HOT W/ IGN 1</text>
</g>
<g id="TEXT_157" style="&st11;">
<text x="5.9949483" y="-17.471389">RELAY ENERGIZED</text>
</g>
<g id="TEXT_159" style="&st5;">
<text x="6.0854098" y="-16.677617">10A</text>
</g>
<g id="Lwpline_15">
<path d="M7.1999494 -17.017734 L7.1999747 -17.108171 L7.9999746 -17.107891 " style="&st2;"/>
</g>
<g id="INSERT_1">
<g transform="matrix(1 0 0 1 7.9999746 -17.107891)">
<use style="&st16;" xlink:href="#SP2_BLK_1_1C"/>
</g>
</g>
<g id="Lwpline_17">
<path d="M5.4 -16.4 L5.4 -13.4 " style="&st17;"/>
</g>
<g id="Lwpline_18">
<path d="M2.6 -11 L8 -11 L8 -13.2 " style="&st17;"/>
</g>
<g id="Lwpline_19">
<path d="M8 -16.4 L8 -13.4 " style="&st13;"/>
</g>
<g id="Lwpline_20">
<path d="M10 -16.678564 L10 -16.466593 " style="&st2;"/>
</g>
<g id="Lwpline_21">
<path d="M10 -17.398608 L9.9999494 -17.017734 " style="&st2;"/>
</g>
<g id="TEXT_160" style="&st11;">
<text x="9.9949483" y="-17.471389">RELAY ENERGIZED</text>
</g>
<g id="TEXT_164" style="&st11;">
<text x="10.004863" y="-17.617104">MAIN PCB</text>
</g>
<g id="TEXT_165" style="&st5;">
<text x="10.08541" y="-16.677617">10A</text>
</g>
<g id="TEXT_167" style="&st11;">
<text x="9.9989063" y="-17.762804">HOT W/ IGNITION</text>
</g>
<g id="TEXT_168" style="&st11;">
<text x="12.604876" y="-17.617104">HOT AT</text>
</g>
<g id="TEXT_169" style="&st5;">
<text x="12.68541" y="-16.677617">25A</text>
</g>
<g id="TEXT_171" style="&st11;">
<text x="12.608969" y="-17.471389">ALL TIMES</text>
</g>
<g id="Lwpline_22">
<path d="M12.6 -17.398608 L12.599949 -17.017734 " style="&st2;"/>
</g>
<g id="Lwpline_23">
<path d="M12.6 -16.678564 L12.6 -16.466593 " style="&st2;"/>
</g>
<g id="Lwpline_24">
<path d="M11.799949 -17.017734 L11.799975 -17.108171 L12.599975 -17.108171 " style="&st2;"/>
</g>
<g id="INSERT_2">
<g transform="matrix(1 0 0 1 12.599975 -17.108171)">
<use style="&st16;" xlink:href="#SP2_BLK_1_1C"/>
</g>
</g>
<g id="Lwpline_25">
<path d="M11.8672 -16.4336 L11.9922 -16.4336 M12.0547 -16.4336 L12.1797 -16.4336 M12.2422 -16.4336 L12.3672 -16.4336 M12.4297 -16.4336 L12.5328 -16.4336 " style="&st18;"/>
</g>
<g id="Lwpline_26">
<path d="M12.6 -16.4 L12.6 -13.4 " style="&st13;"/>
</g>
<g id="Lwpline_27">
<path d="M10 -16.4 L10 -13.4 " style="&st17;"/>
</g>
<g id="Lwpline_28">
<path d="M2.6 -7 L4.4 -7 " style="&st19;"/>
</g>
<g id="Lwpline_29">
<path d="M6.5328 -2.8992 L6.5664 -2.9328 L6.6336 -2.9328 L6.6672 -2.8992 " style="&st22;"/>
</g>
<g id="Lwpline_30">
<path d="M6.5328 -2.9664 L6.5664 -3 L6.6336 -3 L6.6672 -2.9664 " style="&st22;"/>
</g>
<g id="Lwpline_31">
<path d="M6.6 -2.3258572 L6.6 -2.9328 " style="&st23;"/>
</g>
<g id="Lwpline_32">
<path d="M6 -2.3258572 L6 -2.9328 " style="&st23;"/>
</g>
<g id="Lwpline_33">
<path d="M5.9328 -2.9664 L5.9664 -3 L6.0336 -3 L6.0672 -2.9664 " style="&st22;"/>
</g>
<g id="Lwpline_34">
<path d="M5.9328 -2.8992 L5.9664 -2.9328 L6.0336 -2.9328 L6.0672 -2.8992 " style="&st22;"/>
</g>
<g id="Lwpline_35">
<path d="M6.8132954 -2.3258572 L5.753122 -2.3258572 L5.753122 -1.5169269 L6.8132954 -1.5169269 L6.8132954 -2.3258572 " style="&st2;"/>
</g>
<path d="M6.2963252 -2.1025802 A0.024492462 0.024492462 0 0 0 6.2963252 -2.1025875 " id="ARC_1" style="&st24;"/>
<polygon id="SOLID_1" style="&st25;" points="6.1837547 -1.7201581 6.1863582 -1.7405359 6.1596967 -1.7750079 6.1596967 -1.7750079"/>
<polygon id="SOLID_2" style="&st25;" points="6.206736 -1.7379324 6.1863582 -1.7405359 6.1596967 -1.7750079 6.1596967 -1.7750079"/>
<g id="Lwpline_36">
<path d="M6.3735954 -1.9418045 L6.4004808 -1.9686899 L6.4687012 -1.9004694 L6.4418159 -1.8735841 " style="&st2;"/>
</g>
<g id="Lwpline_37">
<path d="M6.2348222 -1.9543795 L6.2348222 -1.9924012 L6.3313004 -1.9924012 L6.3313004 -1.9543795 " style="&st2;"/>
</g>
<g id="Lwpline_38">
<path d="M6.1243068 -1.8735841 L6.0974214 -1.9004694 L6.1656418 -1.9686899 L6.1925272 -1.9418045 " style="&st2;"/>
</g>
<g id="Lwpline_39">
<path d="M6.109761 -1.7348108 L6.0717393 -1.7348108 L6.0717393 -1.8312891 L6.109761 -1.8312891 " style="&st2;"/>
</g>
<g id="Lwpline_40">
<path d="M6.1925272 -1.6242954 L6.1656418 -1.59741 L6.0974214 -1.6656304 L6.1243068 -1.6925158 " style="&st2;"/>
</g>
<g id="Lwpline_41">
<path d="M6.3313004 -1.6122697 L6.3313004 -1.5742481 L6.2348222 -1.5742481 L6.2348222 -1.6122697 " style="&st2;"/>
</g>
<g id="Lwpline_42">
<path d="M6.4418159 -1.6925158 L6.4687012 -1.6656304 L6.4004808 -1.59741 L6.3735954 -1.6242954 " style="&st2;"/>
</g>
<g id="Lwpline_43">
<path d="M6.4541316 -1.8312891 L6.4921532 -1.8312891 L6.4921532 -1.7348108 L6.4541316 -1.7348108 " style="&st2;"/>
</g>
<g id="Lwpline_44">
<path d="M6.1863582 -1.7405359 A0.10563588 0.10563588 0 1 0 6.2134838 -1.8625352 " style="&st2;"/>
</g>
<g id="Lwpline_45">
<path d="M6.0000587 -2.2030616 L6.0000587 -2.3258572 " style="&st2;"/>
</g>
<g id="Lwpline_46">
<path d="M5.8433138 -2.2030616 L6.7228088 -2.2030616 L6.7228088 -1.7328129 L6.5613457 -1.7328129 L6.5613457 -1.833287 L6.6223347 -1.833287 L6.6223347 -2.1025875 L5.9437879 -2.1025875 L5.9437879 -1.833287 L6.0047769 -1.833287 L6.0047769 -1.7328129 L5.8433138 -1.7328129 L5.8433138 -2.2030616 " style="&st2;"/>
</g>
<g id="Lwpline_47">
<path d="M6.5982006 -2.2030616 L6.5796169 -2.1039187 " style="&st18;"/>
</g>
<g id="Lwpline_48">
<path d="M6.530632 -2.1025875 A0.024492462 0.024492462 0 0 0 6.5796169 -2.1025875 " style="&st18;"/>
</g>
<g id="Lwpline_49">
<path d="M6.5472169 -2.2030616 A0.024492462 0.024492462 0 0 0 6.4994931 -2.2108194 " style="&st18;"/>
</g>
<g id="Lwpline_50">
<path d="M6.4994931 -2.2108194 L6.4762718 -2.1025875 " style="&st18;"/>
</g>
<g id="Lwpline_51">
<path d="M6.4272869 -2.1025875 A0.024492462 0.024492462 0 0 0 6.4762718 -2.1025875 " style="&st18;"/>
</g>
<g id="Lwpline_52">
<path d="M6.4447951 -2.2030616 A0.024492462 0.024492462 0 0 0 6.3970713 -2.2108194 " style="&st18;"/>
</g>
<g id="Lwpline_53">
<path d="M6.3970713 -2.2108194 L6.37385 -2.1025875 " style="&st18;"/>
</g>
<g id="Lwpline_54">
<path d="M6.3248651 -2.1025875 A0.024492462 0.024492462 0 0 0 6.37385 -2.1025875 " style="&st18;"/>
</g>
<g id="Lwpline_55">
<path d="M6.34145 -2.2030616 A0.024492462 0.024492462 0 0 0 6.2937262 -2.2108194 " style="&st18;"/>
</g>
<g id="Lwpline_56">
<path d="M6.2937262 -2.2108194 L6.2705049 -2.1025875 " style="&st18;"/>
</g>
<g id="Lwpline_57">
<path d="M6.22152 -2.1025875 A0.024492462 0.024492462 0 0 0 6.2705049 -2.1025875 " style="&st18;"/>
</g>
<g id="Lwpline_58">
<path d="M6.2374575 -2.2030616 A0.024492462 0.024492462 0 0 0 6.1897337 -2.2108194 " style="&st18;"/>
</g>
<g id="Lwpline_59">
<path d="M6.1897337 -2.2108194 L6.1665124 -2.1025875 " style="&st18;"/>
</g>
<g id="Lwpline_60">
<path d="M6.1175275 -2.1025875 A0.024492462 0.024492462 0 0 0 6.1665124 -2.1025875 " style="&st18;"/>
</g>
<g id="Lwpline_61">
<path d="M6.1341124 -2.2030616 A0.024492462 0.024492462 0 0 0 6.0863886 -2.2108194 " style="&st18;"/>
</g>
<g id="Lwpline_62">
<path d="M6.0863886 -2.2108194 L6.0564771 -2.1025875 " style="&st18;"/>
</g>
<g id="Lwpline_63">
<path d="M6.0074922 -2.1025875 A0.024492462 0.024492462 0 0 0 6.0564771 -2.1025875 " style="&st18;"/>
</g>
<ellipse cx="6.2830613" cy="-1.7830499" id="CIRCLE_1" rx="0.18253357" ry="0.18253357" style="&st24;"/>
<ellipse cx="6.2830613" cy="-1.7830499" id="CIRCLE_2" rx="0.18144536" ry="0.18144536" style="&st24;"/>
<ellipse cx="6.2830613" cy="-1.7830499" id="CIRCLE_3" rx="0.18035715" ry="0.18035715" style="&st24;"/>
<ellipse cx="6.2830613" cy="-1.7830499" id="CIRCLE_4" rx="0.17926893" ry="0.17926893" style="&st24;"/>
<ellipse cx="6.2830613" cy="-1.7830499" id="CIRCLE_5" rx="0.17818072" ry="0.17818072" style="&st24;"/>
<ellipse cx="6.2830613" cy="-1.7830499" id="CIRCLE_6" rx="0.18470472" ry="0.18470472" style="&st24;"/>
<ellipse cx="6.2830613" cy="-1.7830499" id="CIRCLE_7" rx="0.17739685" ry="0.17739685" style="&st24;"/>
<ellipse cx="6.2830613" cy="-1.7830499" id="CIRCLE_8" rx="0.18072894" ry="0.18072894" style="&st24;"/>
<ellipse cx="6.2830613" cy="-1.7830499" id="CIRCLE_9" rx="0.18291374" ry="0.18291374" style="&st24;"/>
<g id="Lwpline_64">
<path d="M6.5994065 -2.3231104 L6.5994065 -2.2028017 " style="&st2;"/>
</g>
<g id="Lwpline_65">
<path d="M6 -3 L6 -7.4 L2.6 -7.4 " style="&st12;"/>
</g>
<g id="Lwpline_66">
<path d="M6.6 -3 L6.6 -7.6 L2.6 -7.6 " style="&st26;"/>
</g>
<g id="Lwpline_67">
<path d="M3.1402282 -4.8016984 L2.8152282 -4.8018233 L2.8152282 -4.6630645 " style="&st2;"/>
</g>
<g id="Lwpline_68">
<path d="M2.8152788 -4.335134 L2.8152788 -4.2016984 L3.1402282 -4.2016984 " style="&st2;"/>
</g>
<g id="Lwpline_69">
<path d="M2.525 -5.6 L0.51880858 -5.6 L0.51880858 -9.6 L2.525 -9.6 " style="&st2;"/>
</g>
<g id="Lwpline_70">
<path d="M2.6 -6 L4.6 -6 L4.6 -2.6 L1.2 -2.6 " style="&st27;"/>
</g>
<g id="Lwpline_71">
<path d="M2.6 -6.2 L4.8 -6.2 L4.8 -2 L1.2 -2 " style="&st28;"/>
</g>
<g id="Lwpline_72">
<path d="M7.9735954 -1.9418045 L8.0004808 -1.9686899 L8.0687012 -1.9004694 L8.0418159 -1.8735841 " style="&st2;"/>
</g>
<g id="Lwpline_73">
<path d="M7.8348222 -1.9543795 L7.8348222 -1.9924012 L7.9313004 -1.9924012 L7.9313004 -1.9543795 " style="&st2;"/>
</g>
<g id="Lwpline_74">
<path d="M7.7243068 -1.8735841 L7.6974214 -1.9004694 L7.7656418 -1.9686899 L7.7925272 -1.9418045 " style="&st2;"/>
</g>
<g id="Lwpline_75">
<path d="M7.709761 -1.7348108 L7.6717393 -1.7348108 L7.6717393 -1.8312891 L7.709761 -1.8312891 " style="&st2;"/>
</g>
<g id="Lwpline_76">
<path d="M7.7925272 -1.6242954 L7.7656418 -1.59741 L7.6974214 -1.6656304 L7.7243068 -1.6925158 " style="&st2;"/>
</g>
<g id="Lwpline_77">
<path d="M7.9313004 -1.6122697 L7.9313004 -1.5742481 L7.8348222 -1.5742481 L7.8348222 -1.6122697 " style="&st2;"/>
</g>
<g id="Lwpline_78">
<path d="M8.0418159 -1.6925158 L8.0687012 -1.6656304 L8.0004808 -1.59741 L7.9735954 -1.6242954 " style="&st2;"/>
</g>
<g id="Lwpline_79">
<path d="M8.0541316 -1.8312891 L8.0921532 -1.8312891 L8.0921532 -1.7348108 L8.0541316 -1.7348108 " style="&st2;"/>
</g>
<g id="Lwpline_80">
<path d="M7.7863582 -1.7405359 A0.10563588 0.10563588 0 1 0 7.8134838 -1.8625352 " style="&st2;"/>
</g>
<g id="Lwpline_81">
<path d="M7.6000587 -2.2030616 L7.6000587 -2.3258572 " style="&st2;"/>
</g>
<g id="Lwpline_82">
<path d="M8.1982006 -2.2030616 L8.1796169 -2.1039187 " style="&st18;"/>
</g>
<g id="Lwpline_83">
<path d="M8.0994931 -2.2108194 L8.0762718 -2.1025875 " style="&st18;"/>
</g>
<g id="Lwpline_84">
<path d="M7.9970713 -2.2108194 L7.97385 -2.1025875 " style="&st18;"/>
</g>
<g id="Lwpline_85">
<path d="M7.8937262 -2.2108194 L7.8705049 -2.1025875 " style="&st18;"/>
</g>
<g id="Lwpline_86">
<path d="M7.7897337 -2.2108194 L7.7665124 -2.1025875 " style="&st18;"/>
</g>
<g id="Lwpline_87">
<path d="M7.6863886 -2.2108194 L7.6564771 -2.1025875 " style="&st18;"/>
</g>
<g id="Lwpline_88">
<path d="M8.1994065 -2.3231104 L8.1994065 -2.2028017 " style="&st2;"/>
</g>
<g id="Lwpline_89">
<path d="M7.6 -2.3258572 L7.6 -2.9328 " style="&st23;"/>
</g>
<g id="Lwpline_90">
<path d="M8.2 -2.3258572 L8.2 -2.9328 " style="&st23;"/>
</g>
<g id="Lwpline_91">
<path d="M8.4132954 -2.3258572 L7.353122 -2.3258572 L7.353122 -1.5169269 L8.4132954 -1.5169269 L8.4132954 -2.3258572 " style="&st2;"/>
</g>
<g id="Lwpline_92">
<path d="M7.4433138 -2.2030616 L8.3228088 -2.2030616 L8.3228088 -1.7328129 L8.1613457 -1.7328129 L8.1613457 -1.833287 L8.2223347 -1.833287 L8.2223347 -2.1025875 L7.5437879 -2.1025875 L7.5437879 -1.833287 L7.6047769 -1.833287 L7.6047769 -1.7328129 L7.4433138 -1.7328129 L7.4433138 -2.2030616 " style="&st2;"/>
</g>
<g id="Lwpline_93">
<path d="M7.94145 -2.2030616 A0.024492462 0.024492462 0 0 0 7.8937262 -2.2108194 " style="&st18;"/>
</g>
<ellipse cx="7.8830613" cy="-1.7830499" id="CIRCLE_10" rx="0.18253357" ry="0.18253357" style="&st24;"/>
<ellipse cx="7.8830613" cy="-1.7830499" id="CIRCLE_11" rx="0.18144536" ry="0.18144536" style="&st24;"/>
<ellipse cx="7.8830613" cy="-1.7830499" id="CIRCLE_12" rx="0.18035715" ry="0.18035715" style="&st24;"/>
<ellipse cx="7.8830613" cy="-1.7830499" id="CIRCLE_13" rx="0.17926893" ry="0.17926893" style="&st24;"/>
<ellipse cx="7.8830613" cy="-1.7830499" id="CIRCLE_14" rx="0.17818072" ry="0.17818072" style="&st24;"/>
<ellipse cx="7.8830613" cy="-1.7830499" id="CIRCLE_15" rx="0.18470472" ry="0.18470472" style="&st24;"/>
<ellipse cx="7.8830613" cy="-1.7830499" id="CIRCLE_16" rx="0.17739685" ry="0.17739685" style="&st24;"/>
<ellipse cx="7.8830613" cy="-1.7830499" id="CIRCLE_17" rx="0.18072894" ry="0.18072894" style="&st24;"/>
<ellipse cx="7.8830613" cy="-1.7830499" id="CIRCLE_18" rx="0.18291374" ry="0.18291374" style="&st24;"/>
<g id="Lwpline_94">
<path d="M7.6074922 -2.1025875 A0.024492462 0.024492462 0 0 0 7.6564771 -2.1025875 " style="&st18;"/>
</g>
<polygon id="SOLID_3" style="&st25;" points="7.7837547 -1.7201581 7.7863582 -1.7405359 7.7596967 -1.7750079 7.7596967 -1.7750079"/>
<polygon id="SOLID_4" style="&st25;" points="7.806736 -1.7379324 7.7863582 -1.7405359 7.7596967 -1.7750079 7.7596967 -1.7750079"/>
<path d="M7.8963252 -2.1025802 A0.024492462 0.024492462 0 0 0 7.8963252 -2.1025875 " id="ARC_2" style="&st24;"/>
<g id="Lwpline_95">
<path d="M7.82152 -2.1025875 A0.024492462 0.024492462 0 0 0 7.8705049 -2.1025875 " style="&st18;"/>
</g>
<g id="Lwpline_96">
<path d="M7.8374575 -2.2030616 A0.024492462 0.024492462 0 0 0 7.7897337 -2.2108194 " style="&st18;"/>
</g>
<g id="Lwpline_97">
<path d="M7.7175275 -2.1025875 A0.024492462 0.024492462 0 0 0 7.7665124 -2.1025875 " style="&st18;"/>
</g>
<g id="Lwpline_98">
<path d="M7.7341124 -2.2030616 A0.024492462 0.024492462 0 0 0 7.6863886 -2.2108194 " style="&st18;"/>
</g>
<g id="Lwpline_99">
<path d="M7.5328 -2.9664 L7.5664 -3 L7.6336 -3 L7.6672 -2.9664 " style="&st22;"/>
</g>
<g id="Lwpline_100">
<path d="M7.5328 -2.8992 L7.5664 -2.9328 L7.6336 -2.9328 L7.6672 -2.8992 " style="&st22;"/>
</g>
<g id="Lwpline_101">
<path d="M8.130632 -2.1025875 A0.024492462 0.024492462 0 0 0 8.1796169 -2.1025875 " style="&st18;"/>
</g>
<g id="Lwpline_102">
<path d="M8.1472169 -2.2030616 A0.024492462 0.024492462 0 0 0 8.0994931 -2.2108194 " style="&st18;"/>
</g>
<g id="Lwpline_103">
<path d="M8.0272869 -2.1025875 A0.024492462 0.024492462 0 0 0 8.0762718 -2.1025875 " style="&st18;"/>
</g>
<g id="Lwpline_104">
<path d="M7.9248651 -2.1025875 A0.024492462 0.024492462 0 0 0 7.97385 -2.1025875 " style="&st18;"/>
</g>
<g id="Lwpline_105">
<path d="M8.0447951 -2.2030616 A0.024492462 0.024492462 0 0 0 7.9970713 -2.2108194 " style="&st18;"/>
</g>
<g id="Lwpline_106">
<path d="M8.1328 -2.8992 L8.1664 -2.9328 L8.2336 -2.9328 L8.2672 -2.8992 " style="&st22;"/>
</g>
<g id="Lwpline_107">
<path d="M8.1328 -2.9664 L8.1664 -3 L8.2336 -3 L8.2672 -2.9664 " style="&st22;"/>
</g>
<g id="Lwpline_108">
<path d="M2.6 -7.8 L7.6 -7.8 L7.6 -3 " style="&st29;"/>
</g>
<g id="Lwpline_109">
<path d="M2.6 -8 L8.2 -8 L8.2 -3 " style="&st19;"/>
</g>
<g id="Lwpline_110">
<path d="M2.6 -12.2 L4.4 -12.2 L4.4 -13.2 L1.8 -13.2 " style="&st28;"/>
</g>
<g id="Lwpline_111">
<path d="M2.6 -12 L4.6 -12 L4.6 -13.8 L1.8 -13.8 " style="&st27;"/>
</g>
<g id="Lwpline_112">
<path d="M2.6 -11.8 L4.8 -11.8 L4.8 -15.8 L1.8 -15.8 " style="&st30;"/>
</g>
<g id="Lwpline_113">
<path d="M1.8 -16.4 L5 -16.4 L5 -11.6 L2.6 -11.6 " style="&st31;"/>
</g>
<g id="INSERT_3">
<g transform="matrix(1 0 0 1 6 -16.572579)">
<use style="&st16;" xlink:href="#SP2_BLK_1_1C"/>
</g>
</g>
<g id="Lwpline_114">
<path d="M6 -16.4 L6 -13.4 " style="&st17;"/>
</g>
<g id="Lwpline_115">
<path d="M10 -16.572579 L10.6 -16.572579 L10.6 -16.471076 " style="&st2;"/>
</g>
<g id="INSERT_4">
<g transform="matrix(1 0 0 1 10 -16.572579)">
<use style="&st16;" xlink:href="#SP2_BLK_1_1C"/>
</g>
</g>
<g id="Lwpline_116">
<path d="M10.6 -16.4 L10.6 -13.4 " style="&st17;"/>
</g>
<g id="Lwpline_117">
<path d="M6 -16.4 L6.2 -16.2 L6.6 -16.2 L6.6 -13.4 " style="&st17;"/>
</g>
<g id="Lwpline_118">
<path d="M10.6 -16.4 L10.8 -16.2 L11.2 -16.2 L11.2 -13.4 " style="&st17;"/>
</g>
<g id="Lwpline_119">
<path d="M11.634567 -1.1684268 L13.177589 -1.1684268 L13.177589 -3.3227017 L11.634567 -3.3227017 L11.634567 -1.1684268 " style="&st2;"/>
</g>
<g id="TEXT_239" style="&st3;" transform="matrix(6.1230318e-017 -1 1 6.1230318e-017 15.126435 8.6071341)">
<text x="11.866785" y="-3.2596505">HI SPD SERIAL DATA (+)</text>
</g>
<g id="TEXT_240" style="&st3;" transform="matrix(6.1230318e-017 -1 1 6.1230318e-017 15.926435 9.4071341)">
<text x="12.666785" y="-3.2596505">GROUND</text>
</g>
<g id="TEXT_241" style="&st3;" transform="matrix(6.1230318e-017 -1 1 6.1230318e-017 16.326435 9.8071341)">
<text x="13.066785" y="-3.2596505">IGN VOLT</text>
</g>
<g id="TEXT_242" style="&st3;" transform="matrix(6.1230318e-017 -1 1 6.1230318e-017 15.526435 9.0071341)">
<text x="12.266785" y="-3.2596505">HI SPD SERIAL DATA (-)</text>
</g>
<g id="Lwpline_120">
<path d="M10.398795 -1.4317581 L10.398795 -1.4 " style="&st2;"/>
</g>
<g id="Lwpline_121">
<path d="M10.398845 -1.7709274 L10.398845 -1.912438 " style="&st2;"/>
</g>
<g id="Lwpline_122">
<path d="M10.398845 -1.912438 L10.398845 -1.7709274 " style="&st2;"/>
</g>
<g id="Lwpline_123">
<path d="M10.973804 -1.2768091 L9.8236186 -1.2768091 L9.8236186 -1.9227017 L10.973804 -1.9227017 L10.973804 -1.2768091 " style="&st2;"/>
</g>
<g id="Lwpline_124">
<path d="M10.398795 -1.4 L10 -1.4 L10 -1.9227017 " style="&st2;"/>
</g>
<g id="Lwpline_125">
<path d="M10.798845 -1.9227017 L10.798845 -1.6124608 L10.747718 -1.6124608 " style="&st2;"/>
</g>
<g id="Lwpline_126">
<path d="M9.2 -13.2 L9.2 -11 L13 -11 L13 -3.4 " style="&st17;"/>
</g>
<g id="Lwpline_127">
<path d="M10.8 -2 L10.8 -8.6 L2.6 -8.6 " style="&st13;"/>
</g>
<g id="Lwpline_128">
<path d="M2.6 -6.4 L10 -6.4 L10 -2 " style="&st33;"/>
</g>
<g id="Lwpline_129">
<path d="M3.3875485 -10.521471 L3.3397789 -10.470472 L3.3397789 -10.247825 L3.2888083 -10.2 L3.3397789 -10.152175 L3.3397789 -9.9505858 L3.3875485 -9.899587 " style="&st2;"/>
</g>
<g id="Lwpline_130">
<path d="M3.2 -10.2 L3.075 -10.2 M3.0125 -10.2 L2.8875 -10.2 M2.825 -10.2 L2.7 -10.2 M2.6375 -10.2 L2.6 -10.2 " style="&st18;"/>
</g>
<g id="Lwpline_131">
<path d="M5.2 -9 L5.2 -9.125 M5.2 -9.1875 L5.2 -9.3125 M5.2 -9.375 L5.2 -9.5 M5.2 -9.5625 L5.2 -9.6 " style="&st18;"/>
</g>
<g id="TEXT_286" style="&st3;">
<text x="2.475" y="-10.240771">ENGINE SPD SIG</text>
</g>
<g id="Lwpline_134">
<path d="M2.6 -11.4 L14.2 -11.4 " style="&st27;"/>
</g>
<g id="Lwpline_135">
<path d="M2.6 -11.2 L14.2 -11.2 " style="&st27;"/>
</g>
<g id="Lwpline_136">
<path d="M3.4 -10.4 L14.2 -10.4 " style="&st27;"/>
</g>
<g id="Lwpline_137">
<path d="M8.6 -13.2 L8.6 -9 L14.2 -9 " style="&st17;"/>
</g>
<g id="Lwpline_138">
<path d="M14.2 -10.6 L2.6 -10.6 " style="&st19;"/>
</g>
<g id="Lwpline_139">
<path d="M14.2 -8.8 L2.6 -8.8 " style="&st33;"/>
</g>
<g id="Lwpline_140">
<path d="M14.2 -6.8 L2.6 -6.8 " style="&st34;"/>
</g>
<g id="TEXT_287" style="&st11;">
<text x="14.36352" y="-12.355">1</text>
</g>
<g id="TEXT_288" style="&st11;">
<text x="14.360297" y="-11.355">2</text>
</g>
<g id="TEXT_289" style="&st11;">
<text x="14.359039" y="-11.155">3</text>
</g>
<g id="TEXT_290" style="&st11;">
<text x="14.361065" y="-10.755">4</text>
</g>
<g id="TEXT_291" style="&st11;">
<text x="14.358732" y="-10.555">5</text>
</g>
<g id="TEXT_292" style="&st11;">
<text x="14.359346" y="-10.355">6</text>
</g>
<g id="TEXT_293" style="&st11;">
<text x="14.358701" y="-8.955">7</text>
</g>
<g id="TEXT_294" style="&st11;">
<text x="14.359039" y="-8.755">8</text>
</g>
<g id="TEXT_295" style="&st11;">
<text x="14.358977" y="-8.355">9</text>
</g>
<g id="TEXT_296" style="&st11;">
<text x="14.353811" y="-6.755">10</text>
</g>
<g id="TEXT_297" style="&st11;">
<text x="14.362344" y="-6.555">11</text>
</g>
<g id="Lwpline_141">
<path d="M2.6 -12.40425 L14.2 -12.40425 " style="&st35;"/>
</g>
<g id="Lwpline_142">
<path d="M2.6 -12.39175 L14.2 -12.39175 " style="&st36;"/>
</g>
<g id="Lwpline_143">
<path d="M2.6 -10.80425 L14.2 -10.80425 " style="&st37;"/>
</g>
<g id="Lwpline_144">
<path d="M2.6 -10.79175 L14.2 -10.79175 " style="&st38;"/>
</g>
<g id="Lwpline_145">
<path d="M2.6 -9.00425 L5.108 -9.00425 " style="&st39;"/>
</g>
<g id="Lwpline_146">
<path d="M2.6 -8.99175 L5.108 -8.99175 " style="&st36;"/>
</g>
<g id="Lwpline_147">
<path d="M2.6 -8.40425 L10.308 -8.40425 " style="&st40;"/>
</g>
<g id="Lwpline_148">
<path d="M2.6 -8.39175 L10.308 -8.39175 " style="&st38;"/>
</g>
<g id="Lwpline_149">
<path d="M2.6 -6.60425 L14.2 -6.60425 " style="&st41;"/>
</g>
<g id="Lwpline_150">
<path d="M2.6 -6.59175 L14.2 -6.59175 " style="&st38;"/>
</g>
<g id="Lwpline_151">
<path d="M12.692 -8.40425 L14.2 -8.40425 " style="&st40;"/>
</g>
<g id="Lwpline_152">
<path d="M12.692 -8.39175 L14.2 -8.39175 " style="&st38;"/>
</g>
<g id="Lwpline_153">
<path d="M10.492 -8.40425 L12.508 -8.40425 " style="&st40;"/>
</g>
<g id="Lwpline_154">
<path d="M10.492 -8.39175 L12.508 -8.39175 " style="&st38;"/>
</g>
<g id="Lwpline_155">
<path d="M1.6992 -13.2672 L1.7328 -13.2336 L1.7328 -13.1664 L1.6992 -13.1328 " style="&st22;"/>
</g>
<g id="Lwpline_156">
<path d="M1.7664 -13.2672 L1.8 -13.2336 L1.8 -13.1664 L1.7664 -13.1328 " style="&st22;"/>
</g>
<g id="Lwpline_157">
<path d="M1.1397674 -13.2 L1.7328 -13.2 " style="&st23;"/>
</g>
<g id="Lwpline_158">
<path d="M1.1397674 -13.8 L1.7328 -13.8 " style="&st23;"/>
</g>
<g id="Lwpline_159">
<path d="M1.7664 -13.8672 L1.8 -13.8336 L1.8 -13.7664 L1.7664 -13.7328 " style="&st22;"/>
</g>
<g id="Lwpline_160">
<path d="M1.6992 -13.8672 L1.7328 -13.8336 L1.7328 -13.7664 L1.6992 -13.7328 " style="&st22;"/>
</g>
<g id="Lwpline_161">
<path d="M1.1258572 -12.986705 L1.1258572 -14.046878 L0.31692695 -14.046878 L0.31692695 -12.986705 L1.1258572 -12.986705 " style="&st2;"/>
</g>
<path d="M0.90258017 -13.503675 A0.024492462 0.024492462 0 0 0 0.90258747 -13.503675 " id="ARC_3" style="&st24;"/>
<polygon id="SOLID_5" style="&st25;" points="0.52015809 -13.616245 0.54053592 -13.613642 0.57500789 -13.640303 0.57500789 -13.640303"/>
<polygon id="SOLID_6" style="&st25;" points="0.53793243 -13.593264 0.54053592 -13.613642 0.57500789 -13.640303 0.57500789 -13.640303"/>
<g id="Lwpline_162">
<path d="M0.74180449 -13.426405 L0.76868986 -13.399519 L0.70046943 -13.331299 L0.67358406 -13.358184 " style="&st2;"/>
</g>
<g id="Lwpline_163">
<path d="M0.7543795 -13.565178 L0.79240115 -13.565178 L0.79240115 -13.4687 L0.7543795 -13.4687 " style="&st2;"/>
</g>
<g id="Lwpline_164">
<path d="M0.67358406 -13.675693 L0.70046943 -13.702579 L0.76868986 -13.634358 L0.74180449 -13.607473 " style="&st2;"/>
</g>
<g id="Lwpline_165">
<path d="M0.53481081 -13.690239 L0.53481081 -13.728261 L0.63128906 -13.728261 L0.63128906 -13.690239 " style="&st2;"/>
</g>
<g id="Lwpline_166">
<path d="M0.42429538 -13.607473 L0.39741001 -13.634358 L0.46563044 -13.702579 L0.49251581 -13.675693 " style="&st2;"/>
</g>
<g id="Lwpline_167">
<path d="M0.41226972 -13.4687 L0.37424807 -13.4687 L0.37424807 -13.565178 L0.41226972 -13.565178 " style="&st2;"/>
</g>
<g id="Lwpline_168">
<path d="M0.49251581 -13.358184 L0.46563044 -13.331299 L0.39741001 -13.399519 L0.42429538 -13.426405 " style="&st2;"/>
</g>
<g id="Lwpline_169">
<path d="M0.63128906 -13.345868 L0.63128906 -13.307847 L0.53481081 -13.307847 L0.53481081 -13.345868 " style="&st2;"/>
</g>
<g id="Lwpline_170">
<path d="M0.54053592 -13.613642 A0.10563588 0.10563588 0 1 0 0.6625352 -13.586516 " style="&st2;"/>
</g>
<g id="Lwpline_171">
<path d="M1.0030616 -13.799941 L1.1258572 -13.799941 " style="&st2;"/>
</g>
<g id="Lwpline_172">
<path d="M1.0030616 -13.956686 L1.0030616 -13.077191 L0.53281288 -13.077191 L0.53281288 -13.238654 L0.63328698 -13.238654 L0.63328698 -13.177665 L0.90258747 -13.177665 L0.90258747 -13.856212 L0.63328698 -13.856212 L0.63328698 -13.795223 L0.53281288 -13.795223 L0.53281288 -13.956686 L1.0030616 -13.956686 " style="&st2;"/>
</g>
<g id="Lwpline_173">
<path d="M1.0030616 -13.201799 L0.9039187 -13.220383 " style="&st18;"/>
</g>
<g id="Lwpline_174">
<path d="M0.90258747 -13.269368 A0.024492462 0.024492462 0 0 0 0.90258747 -13.220383 " style="&st18;"/>
</g>
<g id="Lwpline_175">
<path d="M1.0030616 -13.252783 A0.024492462 0.024492462 0 0 0 1.0108194 -13.300507 " style="&st18;"/>
</g>
<g id="Lwpline_176">
<path d="M1.0108194 -13.300507 L0.90258747 -13.323728 " style="&st18;"/>
</g>
<g id="Lwpline_177">
<path d="M0.90258747 -13.372713 A0.024492462 0.024492462 0 0 0 0.90258747 -13.323728 " style="&st18;"/>
</g>
<g id="Lwpline_178">
<path d="M1.0030616 -13.355205 A0.024492462 0.024492462 0 0 0 1.0108194 -13.402929 " style="&st18;"/>
</g>
<g id="Lwpline_179">
<path d="M1.0108194 -13.402929 L0.90258747 -13.42615 " style="&st18;"/>
</g>
<g id="Lwpline_180">
<path d="M0.90258747 -13.475135 A0.024492462 0.024492462 0 0 0 0.90258747 -13.42615 " style="&st18;"/>
</g>
<g id="Lwpline_181">
<path d="M1.0030616 -13.45855 A0.024492462 0.024492462 0 0 0 1.0108194 -13.506274 " style="&st18;"/>
</g>
<g id="Lwpline_182">
<path d="M1.0108194 -13.506274 L0.90258747 -13.529495 " style="&st18;"/>
</g>
<g id="Lwpline_183">
<path d="M0.90258747 -13.57848 A0.024492462 0.024492462 0 0 0 0.90258747 -13.529495 " style="&st18;"/>
</g>
<g id="Lwpline_184">
<path d="M1.0030616 -13.562543 A0.024492462 0.024492462 0 0 0 1.0108194 -13.610266 " style="&st18;"/>
</g>
<g id="Lwpline_185">
<path d="M1.0108194 -13.610266 L0.90258747 -13.633488 " style="&st18;"/>
</g>
<g id="Lwpline_186">
<path d="M0.90258747 -13.682473 A0.024492462 0.024492462 0 0 0 0.90258747 -13.633488 " style="&st18;"/>
</g>
<g id="Lwpline_187">
<path d="M1.0030616 -13.665888 A0.024492462 0.024492462 0 0 0 1.0108194 -13.713611 " style="&st18;"/>
</g>
<g id="Lwpline_188">
<path d="M1.0108194 -13.713611 L0.90258747 -13.743523 " style="&st18;"/>
</g>
<g id="Lwpline_189">
<path d="M0.90258747 -13.792508 A0.024492462 0.024492462 0 0 0 0.90258747 -13.743523 " style="&st18;"/>
</g>
<ellipse cx="0.58304993" cy="-13.516939" id="CIRCLE_19" rx="0.18253357" ry="0.18253357" style="&st24;"/>
<ellipse cx="0.58304993" cy="-13.516939" id="CIRCLE_20" rx="0.18144536" ry="0.18144536" style="&st24;"/>
<ellipse cx="0.58304993" cy="-13.516939" id="CIRCLE_21" rx="0.18035715" ry="0.18035715" style="&st24;"/>
<ellipse cx="0.58304993" cy="-13.516939" id="CIRCLE_22" rx="0.17926893" ry="0.17926893" style="&st24;"/>
<ellipse cx="0.58304993" cy="-13.516939" id="CIRCLE_23" rx="0.17818072" ry="0.17818072" style="&st24;"/>
<ellipse cx="0.58304993" cy="-13.516939" id="CIRCLE_24" rx="0.18470472" ry="0.18470472" style="&st24;"/>
<ellipse cx="0.58304993" cy="-13.516939" id="CIRCLE_25" rx="0.17739685" ry="0.17739685" style="&st24;"/>
<ellipse cx="0.58304993" cy="-13.516939" id="CIRCLE_26" rx="0.18072894" ry="0.18072894" style="&st24;"/>
<ellipse cx="0.58304993" cy="-13.516939" id="CIRCLE_27" rx="0.18291374" ry="0.18291374" style="&st24;"/>
<g id="Lwpline_190">
<path d="M1.1231104 -13.200594 L1.0028017 -13.200594 " style="&st2;"/>
</g>
<g id="Lwpline_191">
<path d="M1.6992 -15.8672 L1.7328 -15.8336 L1.7328 -15.7664 L1.6992 -15.7328 " style="&st22;"/>
</g>
<g id="Lwpline_192">
<path d="M1.7664 -15.8672 L1.8 -15.8336 L1.8 -15.7664 L1.7664 -15.7328 " style="&st22;"/>
</g>
<g id="Lwpline_193">
<path d="M1.1397674 -15.8 L1.7328 -15.8 " style="&st23;"/>
</g>
<g id="Lwpline_194">
<path d="M1.1397674 -16.4 L1.7328 -16.4 " style="&st23;"/>
</g>
<g id="Lwpline_195">
<path d="M1.7664 -16.4672 L1.8 -16.4336 L1.8 -16.3664 L1.7664 -16.3328 " style="&st22;"/>
</g>
<g id="Lwpline_196">
<path d="M1.6992 -16.4672 L1.7328 -16.4336 L1.7328 -16.3664 L1.6992 -16.3328 " style="&st22;"/>
</g>
<g id="Lwpline_197">
<path d="M1.1258572 -15.586705 L1.1258572 -16.646878 L0.31692695 -16.646878 L0.31692695 -15.586705 L1.1258572 -15.586705 " style="&st2;"/>
</g>
<path d="M0.90258017 -16.103675 A0.024492462 0.024492462 0 0 0 0.90258747 -16.103675 " id="ARC_4" style="&st24;"/>
<polygon id="SOLID_7" style="&st25;" points="0.52015809 -16.216245 0.54053592 -16.213642 0.57500789 -16.240303 0.57500789 -16.240303"/>
<polygon id="SOLID_8" style="&st25;" points="0.53793243 -16.193264 0.54053592 -16.213642 0.57500789 -16.240303 0.57500789 -16.240303"/>
<g id="Lwpline_198">
<path d="M0.74180449 -16.026405 L0.76868986 -15.999519 L0.70046943 -15.931299 L0.67358406 -15.958184 " style="&st2;"/>
</g>
<g id="Lwpline_199">
<path d="M0.7543795 -16.165178 L0.79240115 -16.165178 L0.79240115 -16.0687 L0.7543795 -16.0687 " style="&st2;"/>
</g>
<g id="Lwpline_200">
<path d="M0.67358406 -16.275693 L0.70046943 -16.302579 L0.76868986 -16.234358 L0.74180449 -16.207473 " style="&st2;"/>
</g>
<g id="Lwpline_201">
<path d="M0.53481081 -16.290239 L0.53481081 -16.328261 L0.63128906 -16.328261 L0.63128906 -16.290239 " style="&st2;"/>
</g>
<g id="Lwpline_202">
<path d="M0.42429538 -16.207473 L0.39741001 -16.234358 L0.46563044 -16.302579 L0.49251581 -16.275693 " style="&st2;"/>
</g>
<g id="Lwpline_203">
<path d="M0.41226972 -16.0687 L0.37424807 -16.0687 L0.37424807 -16.165178 L0.41226972 -16.165178 " style="&st2;"/>
</g>
<g id="Lwpline_204">
<path d="M0.49251581 -15.958184 L0.46563044 -15.931299 L0.39741001 -15.999519 L0.42429538 -16.026405 " style="&st2;"/>
</g>
<g id="Lwpline_205">
<path d="M0.63128906 -15.945868 L0.63128906 -15.907847 L0.53481081 -15.907847 L0.53481081 -15.945868 " style="&st2;"/>
</g>
<g id="Lwpline_206">
<path d="M0.54053592 -16.213642 A0.10563588 0.10563588 0 1 0 0.6625352 -16.186516 " style="&st2;"/>
</g>
<g id="Lwpline_207">
<path d="M1.0030616 -16.399941 L1.1258572 -16.399941 " style="&st2;"/>
</g>
<g id="Lwpline_208">
<path d="M1.0030616 -16.556686 L1.0030616 -15.677191 L0.53281288 -15.677191 L0.53281288 -15.838654 L0.63328698 -15.838654 L0.63328698 -15.777665 L0.90258747 -15.777665 L0.90258747 -16.456212 L0.63328698 -16.456212 L0.63328698 -16.395223 L0.53281288 -16.395223 L0.53281288 -16.556686 L1.0030616 -16.556686 " style="&st2;"/>
</g>
<g id="Lwpline_209">
<path d="M1.0030616 -15.801799 L0.9039187 -15.820383 " style="&st18;"/>
</g>
<g id="Lwpline_210">
<path d="M0.90258747 -15.869368 A0.024492462 0.024492462 0 0 0 0.90258747 -15.820383 " style="&st18;"/>
</g>
<g id="Lwpline_211">
<path d="M1.0030616 -15.852783 A0.024492462 0.024492462 0 0 0 1.0108194 -15.900507 " style="&st18;"/>
</g>
<g id="Lwpline_212">
<path d="M1.0108194 -15.900507 L0.90258747 -15.923728 " style="&st18;"/>
</g>
<g id="Lwpline_213">
<path d="M0.90258747 -15.972713 A0.024492462 0.024492462 0 0 0 0.90258747 -15.923728 " style="&st18;"/>
</g>
<g id="Lwpline_214">
<path d="M1.0030616 -15.955205 A0.024492462 0.024492462 0 0 0 1.0108194 -16.002929 " style="&st18;"/>
</g>
<g id="Lwpline_215">
<path d="M1.0108194 -16.002929 L0.90258747 -16.02615 " style="&st18;"/>
</g>
<g id="Lwpline_216">
<path d="M0.90258747 -16.075135 A0.024492462 0.024492462 0 0 0 0.90258747 -16.02615 " style="&st18;"/>
</g>
<g id="Lwpline_217">
<path d="M1.0030616 -16.05855 A0.024492462 0.024492462 0 0 0 1.0108194 -16.106274 " style="&st18;"/>
</g>
<g id="Lwpline_218">
<path d="M1.0108194 -16.106274 L0.90258747 -16.129495 " style="&st18;"/>
</g>
<g id="Lwpline_219">
<path d="M0.90258747 -16.17848 A0.024492462 0.024492462 0 0 0 0.90258747 -16.129495 " style="&st18;"/>
</g>
<g id="Lwpline_220">
<path d="M1.0030616 -16.162543 A0.024492462 0.024492462 0 0 0 1.0108194 -16.210266 " style="&st18;"/>
</g>
<g id="Lwpline_221">
<path d="M1.0108194 -16.210266 L0.90258747 -16.233488 " style="&st18;"/>
</g>
<g id="Lwpline_222">
<path d="M0.90258747 -16.282473 A0.024492462 0.024492462 0 0 0 0.90258747 -16.233488 " style="&st18;"/>
</g>
<g id="Lwpline_223">
<path d="M1.0030616 -16.265888 A0.024492462 0.024492462 0 0 0 1.0108194 -16.313611 " style="&st18;"/>
</g>
<g id="Lwpline_224">
<path d="M1.0108194 -16.313611 L0.90258747 -16.343523 " style="&st18;"/>
</g>
<g id="Lwpline_225">
<path d="M0.90258747 -16.392508 A0.024492462 0.024492462 0 0 0 0.90258747 -16.343523 " style="&st18;"/>
</g>
<ellipse cx="0.58304993" cy="-16.116939" id="CIRCLE_28" rx="0.18253357" ry="0.18253357" style="&st24;"/>
<ellipse cx="0.58304993" cy="-16.116939" id="CIRCLE_29" rx="0.18144536" ry="0.18144536" style="&st24;"/>
<ellipse cx="0.58304993" cy="-16.116939" id="CIRCLE_30" rx="0.18035715" ry="0.18035715" style="&st24;"/>
<ellipse cx="0.58304993" cy="-16.116939" id="CIRCLE_31" rx="0.17926893" ry="0.17926893" style="&st24;"/>
<ellipse cx="0.58304993" cy="-16.116939" id="CIRCLE_32" rx="0.17818072" ry="0.17818072" style="&st24;"/>
<ellipse cx="0.58304993" cy="-16.116939" id="CIRCLE_33" rx="0.18470472" ry="0.18470472" style="&st24;"/>
<ellipse cx="0.58304993" cy="-16.116939" id="CIRCLE_34" rx="0.17739685" ry="0.17739685" style="&st24;"/>
<ellipse cx="0.58304993" cy="-16.116939" id="CIRCLE_35" rx="0.18072894" ry="0.18072894" style="&st24;"/>
<ellipse cx="0.58304993" cy="-16.116939" id="CIRCLE_36" rx="0.18291374" ry="0.18291374" style="&st24;"/>
<g id="Lwpline_226">
<path d="M1.1231104 -15.800594 L1.0028017 -15.800594 " style="&st2;"/>
</g>
<g id="Lwpline_227">
<path d="M10.39575 -8.308 L10.39575 -2 " style="&st40;"/>
</g>
<g id="Lwpline_228">
<path d="M10.40825 -8.308 L10.40825 -2 " style="&st38;"/>
</g>
<g id="Lwpline_229">
<path d="M12.59575 -8.308 L12.59575 -3.4 " style="&st40;"/>
</g>
<g id="Lwpline_230">
<path d="M12.60825 -8.308 L12.60825 -3.4 " style="&st38;"/>
</g>
<g id="Lwpline_231">
<path d="M6 -16.572579 L5.4 -16.572579 L5.4 -16.471076 " style="&st2;"/>
</g>
<g id="Lwpline_235">
<path d="M11.8 -13.4 L11.8 -16.4 " style="&st12;"/>
</g>
<g id="Lwpline_236">
<path d="M4.4 -10 L3.4 -10 " style="&st31;"/>
</g>
<g id="Lwpline_237">
<path d="M4.292 -9.6 L4.417 -9.6 M4.4795 -9.6 L4.6045 -9.6 M4.667 -9.6 L4.792 -9.6 M4.8545 -9.6 L4.9795 -9.6 M5.042 -9.6 L5.108 -9.6 " style="&st26;"/>
</g>
<g id="Lwpline_239">
<path d="M2.6 -9.60425 L4.108 -9.60425 " style="&st39;"/>
</g>
<g id="Lwpline_240">
<path d="M2.6 -9.59175 L4.108 -9.59175 " style="&st36;"/>
</g>
<g id="Lwpline_241">
<path d="M2.6 -8.20425 L4.4 -8.20425 " style="&st37;"/>
</g>
<g id="Lwpline_242">
<path d="M2.6 -8.19175 L4.4 -8.19175 " style="&st36;"/>
</g>
<g id="Lwpline_243">
<path d="M12.2 -3.4 L12.2 -5 " style="&st31;"/>
</g>
<g id="Lwpline_244">
<path d="M2.525 -4 L3.1402282 -4 L3.1402282 -5.0016984 L2.525 -5.0016984 " style="&st2;"/>
</g>
<g id="Lwpline_245">
<path d="M11.79575 -3.4 L11.79575 -5 " style="&st37;"/>
</g>
<g id="Lwpline_246">
<path d="M11.80825 -3.4 L11.80825 -5 " style="&st36;"/>
</g>
<g id="Lwpline_247">
<path d="M2.6 -5.4 L4.2 -5.4 L4.2 -4.8 L3.1402282 -4.8 " style="&st12;"/>
</g>
<g id="Lwpline_248">
<path d="M2.6 -5.6 L4.4 -5.6 L4.4 -4.2 L3.1402282 -4.2 " style="&st12;"/>
</g>
<g id="Lwpline_249">
<path d="M2.5664 -10.1328 L2.5664 -10.0078 M2.5664 -9.9453 L2.5664 -9.8203 M2.5664 -9.7578 L2.5664 -9.6672 " style="&st18;"/>
</g>
<g id="Lwpline_250">
<path d="M2.5664 -10.5328 L2.5664 -10.4078 M2.5664 -10.3453 L2.5664 -10.2672 " style="&st18;"/>
</g>
<g id="Lwpline_274">
<path d="M5.24 -9.5202882 L5.24 -9.6789501 " style="&st2;"/>
</g>
<g id="Lwpline_278">
<path d="M5.24 -8.9202882 L5.24 -9.0789501 " style="&st2;"/>
</g>
<g id="TEXT_368" style="&st5;">
<text x="0.09" y="-0.09">302135</text>
</g>
</g>
<g id="Layer_1_WCOLOR" style="&Layer_1_WCOLOR;">
<g id="TEXT_2" style="&st5;">
<text x="3.025" y="-12.45">BRN/WHT</text>
</g>
<g id="TEXT_6" style="&st5;">
<text x="3.025" y="-12.25">BRN</text>
</g>
<g id="TEXT_9" style="&st5;">
<text x="3.025" y="-12.05">WHT</text>
</g>
<g id="TEXT_12" style="&st5;">
<text x="3.025" y="-11.85">DK GRN</text>
</g>
<g id="TEXT_15" style="&st5;">
<text x="3.025" y="-11.65">TAN</text>
</g>
<g id="TEXT_18" style="&st5;">
<text x="3.025" y="-11.45">WHT</text>
</g>
<g id="TEXT_21" style="&st5;">
<text x="3.025" y="-11.25">WHT</text>
</g>
<g id="TEXT_24" style="&st5;">
<text x="3.025" y="-11.05">PNK</text>
</g>
<g id="TEXT_27" style="&st5;">
<text x="3.025" y="-10.85">TAN/BLK</text>
</g>
<g id="TEXT_30" style="&st5;">
<text x="3.025" y="-10.65">LT BLU</text>
</g>
<g id="TEXT_33" style="&st5;">
<text x="3.425" y="-10.45">WHT</text>
</g>
<g id="TEXT_35" style="&st5;">
<text x="3.025" y="-9.65">BLK/WHT</text>
</g>
<g id="TEXT_38" style="&st5;">
<text x="3.025" y="-9.45">RED</text>
</g>
<g id="TEXT_41" style="&st5;">
<text x="3.025" y="-9.25">ORG</text>
</g>
<g id="TEXT_44" style="&st5;">
<text x="3.025" y="-9.05">BLK/WHT</text>
</g>
<g id="TEXT_47" style="&st5;">
<text x="3.025" y="-8.85">GRY</text>
</g>
<g id="TEXT_50" style="&st5;">
<text x="3.025" y="-8.65">ORG</text>
</g>
<g id="TEXT_53" style="&st5;">
<text x="3.025" y="-8.45">GRY/BLK</text>
</g>
<g id="TEXT_56" style="&st5;">
<text x="3.025" y="-8.25">TAN/WHT</text>
</g>
<g id="TEXT_59" style="&st5;">
<text x="3.025" y="-8.05">LT BLU</text>
</g>
<g id="TEXT_62" style="&st5;">
<text x="3.025" y="-7.85">YEL</text>
</g>
<g id="TEXT_65" style="&st5;">
<text x="3.025" y="-7.65">BLK</text>
</g>
<g id="TEXT_68" style="&st5;">
<text x="3.025" y="-7.45">RED</text>
</g>
<g id="TEXT_71" style="&st5;">
<text x="3.025" y="-7.05">LT BLU</text>
</g>
<g id="TEXT_74" style="&st5;">
<text x="3.025" y="-6.85">DK BLU</text>
</g>
<g id="TEXT_77" style="&st5;">
<text x="3.025" y="-6.65">ORG/BLK</text>
</g>
<g id="TEXT_80" style="&st5;">
<text x="3.025" y="-6.45">GRY</text>
</g>
<g id="TEXT_83" style="&st5;">
<text x="3.025" y="-6.25">BRN</text>
</g>
<g id="TEXT_86" style="&st5;">
<text x="3.025" y="-6.05">WHT</text>
</g>
<g id="TEXT_118" style="&st5;">
<text x="3.025" y="-5.65">RED</text>
</g>
<g id="TEXT_119" style="&st5;">
<text x="3.025" y="-5.45">RED</text>
</g>
<g id="TEXT_131" style="&st3;" transform="matrix(6.1230318e-017 -1 1 6.1230318e-017 23.083245 -8.8182164)">
<text x="7.1325144" y="-15.950731">RED</text>
</g>
<g id="TEXT_137" style="&st3;" transform="matrix(6.1230318e-017 -1 1 6.1230318e-017 27.683245 -4.2182164)">
<text x="11.732514" y="-15.950731">RED</text>
</g>
<g id="TEXT_143" style="&st3;" transform="matrix(6.1230318e-017 -1 1 6.1230318e-017 22.883245 -3.4182164)">
<text x="9.7325144" y="-13.150731">RED</text>
</g>
<g id="TEXT_147" style="&st3;" transform="matrix(6.1230318e-017 -1 1 6.1230318e-017 23.883245 -8.0182164)">
<text x="7.9325144" y="-15.950731">ORG</text>
</g>
<g id="TEXT_155" style="&st3;" transform="matrix(6.1230318e-017 -1 1 6.1230318e-017 21.283245 -10.618216)">
<text x="5.3325144" y="-15.950731">PNK</text>
</g>
<g id="TEXT_163" style="&st3;" transform="matrix(6.1230318e-017 -1 1 6.1230318e-017 25.883245 -6.0182164)">
<text x="9.9325144" y="-15.950731">PNK</text>
</g>
<g id="TEXT_175" style="&st3;" transform="matrix(6.1230318e-017 -1 1 6.1230318e-017 28.483245 -3.4182164)">
<text x="12.532514" y="-15.950731">ORG</text>
</g>
<g id="TEXT_176" style="&st3;" transform="matrix(6.1230318e-017 -1 1 6.1230318e-017 23.683245 -2.6182164)">
<text x="10.532514" y="-13.150731">ORG</text>
</g>
<g id="TEXT_177" style="&st3;" transform="matrix(6.1230318e-017 -1 1 6.1230318e-017 21.083245 -5.2182164)">
<text x="7.9325144" y="-13.150731">PNK</text>
</g>
<g id="TEXT_187" style="&st5;" transform="matrix(6.1230318e-017 -1 1 6.1230318e-017 8.4224521 3.4659381)">
<text x="5.9441951" y="-2.478257">NCA</text>
</g>
<g id="TEXT_188" style="&st5;" transform="matrix(6.1230318e-017 -1 1 6.1230318e-017 9.0224521 4.0659381)">
<text x="6.5441951" y="-2.478257">NCA</text>
</g>
<g id="TEXT_191" style="&st5;" transform="matrix(6.1230318e-017 -1 1 6.1230318e-017 9.2224521 2.6659381)">
<text x="5.9441951" y="-3.278257">RED</text>
</g>
<g id="TEXT_192" style="&st5;" transform="matrix(6.1230318e-017 -1 1 6.1230318e-017 9.8224521 3.2659381)">
<text x="6.5441951" y="-3.278257">BLK</text>
</g>
<g id="TEXT_193" style="&st5;">
<text x="3.4340678" y="-4.25">RED</text>
</g>
<g id="TEXT_194" style="&st5;">
<text x="3.4340678" y="-4.85">RED</text>
</g>
<g id="TEXT_200" style="&st5;">
<text x="1.625" y="-2.65">WHT</text>
</g>
<g id="TEXT_202" style="&st5;">
<text x="1.625" y="-2.05">BRN</text>
</g>
<g id="TEXT_207" style="&st5;" transform="matrix(6.1230318e-017 -1 1 6.1230318e-017 10.022452 5.0659381)">
<text x="7.5441951" y="-2.478257">NCA</text>
</g>
<g id="TEXT_208" style="&st5;" transform="matrix(6.1230318e-017 -1 1 6.1230318e-017 10.822452 4.2659381)">
<text x="7.5441951" y="-3.278257">YEL</text>
</g>
<g id="TEXT_210" style="&st5;" transform="matrix(6.1230318e-017 -1 1 6.1230318e-017 10.622452 5.6659381)">
<text x="8.1441951" y="-2.478257">NCA</text>
</g>
<g id="TEXT_211" style="&st5;" transform="matrix(6.1230318e-017 -1 1 6.1230318e-017 11.422452 4.8659381)">
<text x="8.1441951" y="-3.278257">LT BLU</text>
</g>
<g id="TEXT_212" style="&st5;">
<text x="2.225" y="-13.25">BRN</text>
</g>
<g id="TEXT_214" style="&st5;">
<text x="1.2573632" y="-13.25">NCA</text>
</g>
<g id="TEXT_215" style="&st5;">
<text x="2.225" y="-13.85">WHT</text>
</g>
<g id="TEXT_217" style="&st5;">
<text x="1.2573632" y="-13.85">NCA</text>
</g>
<g id="TEXT_221" style="&st5;">
<text x="1.2573632" y="-15.85">NCA</text>
</g>
<g id="TEXT_222" style="&st5;">
<text x="1.2573632" y="-16.45">NCA</text>
</g>
<g id="TEXT_225" style="&st5;">
<text x="2.225" y="-15.85">DK GRN</text>
</g>
<g id="TEXT_226" style="&st5;">
<text x="2.225" y="-16.45">TAN</text>
</g>
<g id="TEXT_230" style="&st3;" transform="matrix(6.1230318e-017 -1 1 6.1230318e-017 21.883245 -10.018216)">
<text x="5.9325144" y="-15.950731">PNK</text>
</g>
<g id="TEXT_231" style="&st3;" transform="matrix(6.1230318e-017 -1 1 6.1230318e-017 26.483245 -5.4182164)">
<text x="10.532514" y="-15.950731">PNK</text>
</g>
<g id="TEXT_232" style="&st3;" transform="matrix(6.1230318e-017 -1 1 6.1230318e-017 21.683245 -4.6182164)">
<text x="8.5325144" y="-13.150731">PNK</text>
</g>
<g id="TEXT_243" style="&st5;" transform="matrix(6.1230318e-017 -1 1 6.1230318e-017 16.955155 8.9361808)">
<text x="12.945668" y="-4.0094869">PNK</text>
</g>
<g id="TEXT_244" style="&st5;" transform="matrix(6.1230318e-017 -1 1 6.1230318e-017 16.555155 8.5361808)">
<text x="12.545668" y="-4.0094869">GRY/BLK</text>
</g>
<g id="TEXT_248" style="&st5;" transform="matrix(6.1230318e-017 -1 1 6.1230318e-017 15.755155 7.7361808)">
<text x="11.745668" y="-4.0094869">TAN/WHT</text>
</g>
<g id="TEXT_249" style="&st5;" transform="matrix(6.1230318e-017 -1 1 6.1230318e-017 16.155155 8.1361808)">
<text x="12.145668" y="-4.0094869">TAN</text>
</g>
<g id="TEXT_256" style="&st5;" transform="matrix(6.1230318e-017 -1 1 6.1230318e-017 12.366225 7.5251103)">
<text x="9.9456677" y="-2.4205574">GRY</text>
</g>
<g id="TEXT_258" style="&st5;" transform="matrix(6.1230318e-017 -1 1 6.1230318e-017 12.766225 7.9251103)">
<text x="10.345668" y="-2.4205574">GRY/BLK</text>
</g>
<g id="TEXT_260" style="&st5;" transform="matrix(6.1230318e-017 -1 1 6.1230318e-017 13.166225 8.3251103)">
<text x="10.745668" y="-2.4205574">ORG</text>
</g>
<g id="TEXT_263" style="&st3;" transform="matrix(6.1230318e-017 -1 1 6.1230318e-017 22.283245 -4.0182164)">
<text x="9.1325144" y="-13.150731">PNK</text>
</g>
<g id="TEXT_264" style="&st3;" transform="matrix(6.1230318e-017 -1 1 6.1230318e-017 22.483245 -9.4182164)">
<text x="6.5325144" y="-15.950731">PNK</text>
</g>
<g id="TEXT_265" style="&st3;" transform="matrix(6.1230318e-017 -1 1 6.1230318e-017 27.083245 -4.8182164)">
<text x="11.132514" y="-15.950731">PNK</text>
</g>
<g id="TEXT_266" style="&st5;">
<text x="10.912679" y="-8.45">GRY/BLK</text>
</g>
<g id="TEXT_273" style="&st5;">
<text x="3.425" y="-10.05">TAN</text>
</g>
<g id="TEXT_298" style="&st3;">
<text x="14.144354" y="-6.65">ORG/BLK</text>
</g>
<g id="TEXT_299" style="&st3;">
<text x="14.144354" y="-6.85">DK BLU</text>
</g>
<g id="TEXT_300" style="&st3;">
<text x="14.144354" y="-8.45">GRY/BLK</text>
</g>
<g id="TEXT_301" style="&st3;">
<text x="14.144354" y="-8.85">GRY</text>
</g>
<g id="TEXT_302" style="&st3;">
<text x="14.144354" y="-9.05">PNK</text>
</g>
<g id="TEXT_303" style="&st3;">
<text x="14.144354" y="-10.45">WHT</text>
</g>
<g id="TEXT_304" style="&st3;">
<text x="14.144354" y="-10.65">LT BLU</text>
</g>
<g id="TEXT_305" style="&st3;">
<text x="14.144354" y="-10.85">TAN/BLK</text>
</g>
<g id="TEXT_306" style="&st3;">
<text x="14.144354" y="-11.25">WHT</text>
</g>
<g id="TEXT_307" style="&st3;">
<text x="14.144354" y="-11.45">WHT</text>
</g>
<g id="TEXT_308" style="&st3;">
<text x="14.144354" y="-12.45">BRN/WHT</text>
</g>
<g id="TEXT_342" style="&st5;">
<text x="4.4530383" y="-9.65">BLK/WHT</text>
</g>
</g>
<g id="Layer_1_CKTNUM" style="&Layer_1_CKTNUM;">
<g id="TEXT_3" style="&st5;">
<text x="3.825" y="-12.45">2086</text>
</g>
<g id="TEXT_7" style="&st5;">
<text x="3.825" y="-12.25">882</text>
</g>
<g id="TEXT_10" style="&st5;">
<text x="3.825" y="-12.05">883</text>
</g>
<g id="TEXT_13" style="&st5;">
<text x="3.825" y="-11.85">872</text>
</g>
<g id="TEXT_16" style="&st5;">
<text x="3.825" y="-11.65">833</text>
</g>
<g id="TEXT_19" style="&st5;">
<text x="3.825" y="-11.45">17</text>
</g>
<g id="TEXT_22" style="&st5;">
<text x="3.825" y="-11.25">121</text>
</g>
<g id="TEXT_25" style="&st5;">
<text x="3.825" y="-11.05">1039</text>
</g>
<g id="TEXT_28" style="&st5;">
<text x="3.825" y="-10.85">464</text>
</g>
<g id="TEXT_31" style="&st5;">
<text x="3.825" y="-10.65">715</text>
</g>
<g id="TEXT_34" style="&st5;">
<text x="3.825" y="-10.45">121</text>
</g>
<g id="TEXT_36" style="&st5;">
<text x="3.7264563" y="-9.65">251</text>
</g>
<g id="TEXT_39" style="&st5;">
<text x="3.825" y="-9.45">1442</text>
</g>
<g id="TEXT_42" style="&st5;">
<text x="3.825" y="-9.25">1740</text>
</g>
<g id="TEXT_45" style="&st5;">
<text x="3.825" y="-9.05">251</text>
</g>
<g id="TEXT_48" style="&st5;">
<text x="3.825" y="-8.85">930</text>
</g>
<g id="TEXT_51" style="&st5;">
<text x="3.825" y="-8.65">1575</text>
</g>
<g id="TEXT_54" style="&st5;">
<text x="3.825" y="-8.45">1798</text>
</g>
<g id="TEXT_57" style="&st5;">
<text x="3.825" y="-8.25">2500</text>
</g>
<g id="TEXT_60" style="&st5;">
<text x="3.825" y="-8.05">830</text>
</g>
<g id="TEXT_63" style="&st5;">
<text x="3.825" y="-7.85">873</text>
</g>
<g id="TEXT_66" style="&st5;">
<text x="3.825" y="-7.65">884</text>
</g>
<g id="TEXT_69" style="&st5;">
<text x="3.825" y="-7.45">885</text>
</g>
<g id="TEXT_72" style="&st5;">
<text x="3.825" y="-7.05">1122</text>
</g>
<g id="TEXT_75" style="&st5;">
<text x="3.825" y="-6.85">716</text>
</g>
<g id="TEXT_78" style="&st5;">
<text x="3.825" y="-6.65">463</text>
</g>
<g id="TEXT_81" style="&st5;">
<text x="3.825" y="-6.45">596</text>
</g>
<g id="TEXT_84" style="&st5;">
<text x="3.825" y="-6.25">1295</text>
</g>
<g id="TEXT_87" style="&st5;">
<text x="3.825" y="-6.05">1294</text>
</g>
<g id="TEXT_274" style="&st5;">
<text x="3.825" y="-10.05">2501</text>
</g>
</g>
<g id="Layer_1_CONN" style="&Layer_1_CONN;">
<g id="TEXT_4" style="&st5;">
<text x="2.625" y="-12.45">1</text>
</g>
<g id="TEXT_88" style="&st5;">
<text x="2.625" y="-12.25">2</text>
</g>
<g id="TEXT_89" style="&st5;">
<text x="2.625" y="-12.05">3</text>
</g>
<g id="TEXT_90" style="&st5;">
<text x="2.625" y="-11.85">4</text>
</g>
<g id="TEXT_91" style="&st5;">
<text x="2.625" y="-11.65">5</text>
</g>
<g id="TEXT_92" style="&st5;">
<text x="2.625" y="-11.45">6</text>
</g>
<g id="TEXT_93" style="&st5;">
<text x="2.625" y="-11.25">7</text>
</g>
<g id="TEXT_94" style="&st5;">
<text x="2.625" y="-11.05">8</text>
</g>
<g id="TEXT_95" style="&st5;">
<text x="2.625" y="-10.85">9</text>
</g>
<g id="TEXT_96" style="&st5;">
<text x="2.625" y="-10.65">10</text>
</g>
<g id="TEXT_97" style="&st5;">
<text x="2.625" y="-10.25">11</text>
</g>
<g id="TEXT_98" style="&st5;">
<text x="2.625" y="-9.65">12</text>
</g>
<g id="TEXT_99" style="&st5;">
<text x="2.625" y="-9.45">13</text>
</g>
<g id="TEXT_100" style="&st5;">
<text x="2.625" y="-9.25">14</text>
</g>
<g id="TEXT_101" style="&st5;">
<text x="2.625" y="-9.05">15</text>
</g>
<g id="TEXT_102" style="&st5;">
<text x="2.625" y="-8.85">16</text>
</g>
<g id="TEXT_103" style="&st5;">
<text x="2.625" y="-8.65">17</text>
</g>
<g id="TEXT_104" style="&st5;">
<text x="2.625" y="-8.45">18</text>
</g>
<g id="TEXT_105" style="&st5;">
<text x="2.625" y="-8.25">19</text>
</g>
<g id="TEXT_106" style="&st5;">
<text x="2.625" y="-8.05">20</text>
</g>
<g id="TEXT_107" style="&st5;">
<text x="2.625" y="-7.85">21</text>
</g>
<g id="TEXT_108" style="&st5;">
<text x="2.625" y="-7.65">22</text>
</g>
<g id="TEXT_109" style="&st5;">
<text x="2.625" y="-7.45">23</text>
</g>
<g id="TEXT_110" style="&st5;">
<text x="2.625" y="-7.25">24</text>
</g>
<g id="TEXT_111" style="&st5;">
<text x="2.625" y="-7.05">25</text>
</g>
<g id="TEXT_112" style="&st5;">
<text x="2.625" y="-6.85">26</text>
</g>
<g id="TEXT_113" style="&st5;">
<text x="2.625" y="-6.65">27</text>
</g>
<g id="TEXT_114" style="&st5;">
<text x="2.625" y="-6.45">28</text>
</g>
<g id="TEXT_115" style="&st5;">
<text x="2.625" y="-6.25">29</text>
</g>
<g id="TEXT_116" style="&st5;">
<text x="2.625" y="-6.05">30</text>
</g>
<g id="TEXT_120" style="&st5;">
<text x="2.625" y="-5.65">1</text>
</g>
<g id="TEXT_121" style="&st5;">
<text x="2.625" y="-5.45">2</text>
</g>
<g id="TEXT_122" style="&st5;">
<text x="2.625" y="-5.85">X1</text>
</g>
<g id="TEXT_123" style="&st5;">
<text x="2.625" y="-5.25">X2</text>
</g>
<g id="TEXT_129" style="&st3;" transform="matrix(6.1230318e-017 -1 1 6.1230318e-017 23.500459 -9.2354304)">
<text x="7.1325144" y="-16.367945">C2</text>
</g>
<g id="TEXT_130" style="&st3;" transform="matrix(6.1230318e-017 -1 1 6.1230318e-017 23.718101 -9.0177886)">
<text x="7.3501561" y="-16.367945">X4</text>
</g>
<g id="TEXT_136" style="&st3;" transform="matrix(6.1230318e-017 -1 1 6.1230318e-017 28.100459 -4.6354304)">
<text x="11.732514" y="-16.367945">F2</text>
</g>
<g id="TEXT_145" style="&st3;" transform="matrix(6.1230318e-017 -1 1 6.1230318e-017 24.300459 -8.4354304)">
<text x="7.9325144" y="-16.367945">C5</text>
</g>
<g id="TEXT_146" style="&st3;" transform="matrix(6.1230318e-017 -1 1 6.1230318e-017 24.518101 -8.2177886)">
<text x="8.1501561" y="-16.367945">X1</text>
</g>
<g id="TEXT_153" style="&st3;" transform="matrix(6.1230318e-017 -1 1 6.1230318e-017 21.700459 -11.03543)">
<text x="5.3325144" y="-16.367945">A9</text>
</g>
<g id="TEXT_154" style="&st3;" transform="matrix(6.1230318e-017 -1 1 6.1230318e-017 21.918101 -10.817789)">
<text x="5.5501561" y="-16.367945">X1</text>
</g>
<g id="TEXT_162" style="&st3;" transform="matrix(6.1230318e-017 -1 1 6.1230318e-017 26.300459 -6.4354304)">
<text x="9.9325144" y="-16.367945">K1</text>
</g>
<g id="TEXT_173" style="&st3;" transform="matrix(6.1230318e-017 -1 1 6.1230318e-017 29.118101 -3.6177886)">
<text x="12.750156" y="-16.367945">X1</text>
</g>
<g id="TEXT_174" style="&st3;" transform="matrix(6.1230318e-017 -1 1 6.1230318e-017 28.900459 -3.8354304)">
<text x="12.532514" y="-16.367945">G3</text>
</g>
<g id="TEXT_189" style="&st5;" transform="matrix(6.1230318e-017 -1 1 6.1230318e-017 8.9615643 2.9268258)">
<text x="5.9441951" y="-3.0173692">B</text>
</g>
<g id="TEXT_190" style="&st5;" transform="matrix(6.1230318e-017 -1 1 6.1230318e-017 9.5615643 3.5268258)">
<text x="6.5441951" y="-3.0173692">A</text>
</g>
<g id="TEXT_199" style="&st5;">
<text x="1.225" y="-2.65">A</text>
</g>
<g id="TEXT_201" style="&st5;">
<text x="1.225" y="-2.05">B</text>
</g>
<g id="TEXT_206" style="&st5;" transform="matrix(6.1230318e-017 -1 1 6.1230318e-017 10.561564 4.5268258)">
<text x="7.5441951" y="-3.0173692">A</text>
</g>
<g id="TEXT_209" style="&st5;" transform="matrix(6.1230318e-017 -1 1 6.1230318e-017 11.161564 5.1268258)">
<text x="8.1441951" y="-3.0173692">B</text>
</g>
<g id="TEXT_213" style="&st5;">
<text x="1.825" y="-13.25">A</text>
</g>
<g id="TEXT_216" style="&st5;">
<text x="1.825" y="-13.85">B</text>
</g>
<g id="TEXT_223" style="&st5;">
<text x="1.825" y="-15.85">B</text>
</g>
<g id="TEXT_224" style="&st5;">
<text x="1.825" y="-16.45">A</text>
</g>
<g id="TEXT_233" style="&st3;" transform="matrix(6.1230318e-017 -1 1 6.1230318e-017 22.300459 -10.43543)">
<text x="5.9325144" y="-16.367945">A11</text>
</g>
<g id="TEXT_234" style="&st3;" transform="matrix(6.1230318e-017 -1 1 6.1230318e-017 22.701186 -10.139268)">
<text x="6.2809587" y="-16.420227">X2</text>
</g>
<g id="TEXT_235" style="&st3;" transform="matrix(6.1230318e-017 -1 1 6.1230318e-017 26.518101 -6.2177886)">
<text x="10.150156" y="-16.367945">X1</text>
</g>
<g id="TEXT_236" style="&st3;" transform="matrix(6.1230318e-017 -1 1 6.1230318e-017 26.900459 -5.8354304)">
<text x="10.532514" y="-16.367945">J3</text>
</g>
<g id="TEXT_237" style="&st3;" transform="matrix(6.1230318e-017 -1 1 6.1230318e-017 27.288096 -5.5784997)">
<text x="10.854798" y="-16.433298">X4</text>
</g>
<g id="TEXT_245" style="&st5;" transform="matrix(6.1230318e-017 -1 1 6.1230318e-017 16.377592 9.4988385)">
<text x="12.938215" y="-3.4393769">2</text>
</g>
<g id="TEXT_246" style="&st5;" transform="matrix(6.1230318e-017 -1 1 6.1230318e-017 15.977592 9.0988385)">
<text x="12.538215" y="-3.4393769">1</text>
</g>
<g id="TEXT_247" style="&st5;" transform="matrix(6.1230318e-017 -1 1 6.1230318e-017 15.177592 8.2988385)">
<text x="11.738215" y="-3.4393769">3</text>
</g>
<g id="TEXT_250" style="&st5;" transform="matrix(6.1230318e-017 -1 1 6.1230318e-017 15.577592 8.6988385)">
<text x="12.138215" y="-3.4393769">4</text>
</g>
<g id="TEXT_255" style="&st5;" transform="matrix(6.1230318e-017 -1 1 6.1230318e-017 11.977592 7.8988385)">
<text x="9.9382154" y="-2.0393769">3</text>
</g>
<g id="TEXT_257" style="&st5;" transform="matrix(6.1230318e-017 -1 1 6.1230318e-017 12.377592 8.2988385)">
<text x="10.338215" y="-2.0393769">1</text>
</g>
<g id="TEXT_259" style="&st5;" transform="matrix(6.1230318e-017 -1 1 6.1230318e-017 12.777592 8.6988385)">
<text x="10.738215" y="-2.0393769">2</text>
</g>
</g>
<g id="Layer_1_BESTVIEW" style="&Layer_1_BESTVIEW;">
<g id="TEXT_124" style="&st5;">
<text x="0.14974563" y="-3.846249">ELECTRONIC BRAKE</text>
</g>
<g id="TEXT_125" style="&st5;">
<text x="0.14974563" y="-3.696249">CONTROL MODULE (EBCM)</text>
</g>
<g id="TEXT_181" style="&st5;">
<text x="0.47993619" y="-1.6990153">VARIABLE</text>
</g>
<g id="TEXT_182" style="&st5;">
<text x="0.47993619" y="-1.5490153">EFFORT STEERING</text>
</g>
<g id="TEXT_183" style="&st5;">
<text x="0.47993619" y="-1.4033153">ACTUATOR</text>
</g>
<g id="TEXT_184" style="&st11;">
<text x="6.3158863" y="-1.3805354">LEFT REAR</text>
</g>
<g id="TEXT_185" style="&st11;">
<text x="6.3186266" y="-1.2305354">WHEEL SPEED</text>
</g>
<g id="TEXT_186" style="&st11;">
<text x="6.3150289" y="-1.0805354">SENSOR (WSS)</text>
</g>
<g id="TEXT_195" style="&st5;">
<text x="2.5355311" y="-3.7211497">PRESSURE</text>
</g>
<g id="TEXT_196" style="&st5;">
<text x="2.5355311" y="-3.8711497">BRAKE</text>
</g>
<g id="TEXT_197" style="&st5;">
<text x="2.5355311" y="-3.5754497">MODULATOR</text>
</g>
<g id="TEXT_198" style="&st5;">
<text x="2.5355311" y="-3.4297497">VALVE (BPMV)</text>
</g>
<g id="TEXT_203" style="&st11;">
<text x="7.9149363" y="-1.3805354">LEFT FRONT</text>
</g>
<g id="TEXT_204" style="&st11;">
<text x="7.9150264" y="-1.0805354">SENSOR (WSS)</text>
</g>
<g id="TEXT_205" style="&st11;">
<text x="7.9186239" y="-1.2305354">WHEEL SPEED</text>
</g>
<g id="TEXT_218" style="&st5;">
<text x="0.32182794" y="-14.274143">WHEEL SPEED</text>
</g>
<g id="TEXT_219" style="&st5;">
<text x="0.32182794" y="-14.424143">RIGHT REAR</text>
</g>
<g id="TEXT_220" style="&st5;">
<text x="0.32182794" y="-14.124143">SENSOR (WSS)</text>
</g>
<g id="TEXT_227" style="&st5;">
<text x="0.29291805" y="-16.704083">SENSOR (WSS)</text>
</g>
<g id="TEXT_228" style="&st5;">
<text x="0.29291805" y="-16.854083">WHEEL SPEED</text>
</g>
<g id="TEXT_229" style="&st5;">
<text x="0.29291805" y="-17.004083">RIGHT FRONT</text>
</g>
<g id="TEXT_238" style="&st11;">
<text x="12.396372" y="-0.99302902">STEERING</text>
</g>
<g id="TEXT_251" style="&st11;">
<text x="12.390279" y="-0.84302902">ANGLE SENSOR</text>
</g>
<g id="TEXT_252" style="&st11;">
<text x="10.416133" y="-0.81186368">SENSOR</text>
</g>
<g id="TEXT_253" style="&st11;">
<text x="10.413982" y="-0.96186368">PRESSURE</text>
</g>
<g id="TEXT_254" style="&st11;">
<text x="10.411964" y="-1.1118637">BRAKE FLUID</text>
</g>
</g>
<g id="Layer_1_COMPNAME" style="&Layer_1_COMPNAME;">
<g id="TEXT_126" style="&st5;">
<text x="7.2854098" y="-16.677632">FUSE 31</text>
</g>
<g id="TEXT_127" style="&st5;">
<text x="7.2854098" y="-16.969046">ABS</text>
</g>
<g id="TEXT_132" style="&st3;">
<text x="5.1071147" y="-17.169506">FUSE BLOCK</text>
</g>
<g id="TEXT_133" style="&st3;">
<text x="5.1071145" y="-17.319506">UNDERHOOD</text>
</g>
<g id="TEXT_134" style="&st5;">
<text x="11.88541" y="-16.969046">ABS MTR</text>
</g>
<g id="TEXT_135" style="&st5;">
<text x="11.88541" y="-16.823332">FUSE</text>
</g>
<g id="TEXT_139" style="&st5;">
<text x="13.454285" y="-17.302308">UNDERHOOD</text>
</g>
<g id="TEXT_140" style="&st5;">
<text x="13.454285" y="-17.152308">FUSE BLOCK</text>
</g>
<g id="TEXT_144" style="&st5;">
<text x="8.0854098" y="-16.969046">ABS</text>
</g>
<g id="TEXT_150" style="&st5;">
<text x="8.0854098" y="-16.677632">FUSE 19</text>
</g>
<g id="TEXT_152" style="&st5;">
<text x="6.0854098" y="-16.969046">ABS</text>
</g>
<g id="TEXT_158" style="&st5;">
<text x="6.0854098" y="-16.823332">FUSE 23</text>
</g>
<g id="TEXT_161" style="&st5;">
<text x="10.08541" y="-16.823332">FUSE</text>
</g>
<g id="TEXT_166" style="&st5;">
<text x="10.08541" y="-16.969046">ABS</text>
</g>
<g id="TEXT_170" style="&st5;">
<text x="12.68541" y="-16.823332">FUSE</text>
</g>
<g id="TEXT_172" style="&st5;">
<text x="12.68541" y="-16.969046">ABS SOL</text>
</g>
<g id="TEXT_261" style="&st5;">
<text x="7.2854098" y="-16.823346">MTR</text>
</g>
<g id="TEXT_262" style="&st5;">
<text x="8.0854098" y="-16.823346">SOL</text>
</g>
</g>
<g id="Layer_1_MISC" style="&Layer_1_MISC;">
<g id="TEXT_141" style="&st11;">
<text x="11.795515" y="-13.113432">5.3L</text>
</g>
<g id="TEXT_142" style="&st11;">
<text x="6.3841023" y="-13.113432">EXCEPT 5.3L</text>
</g>
<g id="TEXT_269" style="&st11;">
<text x="12.394134" y="-0.69302902">(W/ ACTIVE</text>
</g>
<g id="TEXT_270" style="&st11;">
<text x="12.384943" y="-0.54302902">BRAKE CONTROL)</text>
</g>
<g id="TEXT_271" style="&st11;">
<text x="10.405956" y="-0.51186368">BRAKE CONTROL)</text>
</g>
<g id="TEXT_272" style="&st11;">
<text x="10.415147" y="-0.66186368">(W/ ACTIVE</text>
</g>
<g id="TEXT_275" style="&st5;">
<text x="5.6775692" y="-11.933469">W/ ACTIVE BRAKE CONTROL</text>
</g>
<g id="TEXT_276" style="&st5;">
<text x="5.6775692" y="-12.17856">W/O ACTIVE BRAKE CONTROL</text>
</g>
<g id="Lwpline_132">
<path d="M13.416355 -8.8677339 L13.416355 -9.2434266 L13.563729 -9.0499666 " style="&st2;"/>
</g>
<g id="TEXT_277" style="&st11;">
<text x="13.429682" y="-9.6150317">W/ ACTIVE</text>
</g>
<g id="TEXT_278" style="&st11;">
<text x="13.426652" y="-9.3236317">CONTROL</text>
</g>
<g id="TEXT_279" style="&st11;">
<text x="13.429485" y="-9.4693317">BRAKE</text>
</g>
<g id="TEXT_280" style="&st11;">
<text x="11.426652" y="-11.484117">CONTROL</text>
</g>
<g id="TEXT_281" style="&st11;">
<text x="11.429485" y="-11.629817">BRAKE</text>
</g>
<g id="TEXT_282" style="&st11;">
<text x="11.429682" y="-11.775517">W/ ACTIVE</text>
</g>
<g id="TEXT_283" style="&st11;">
<text x="13.426652" y="-7.3829424">CONTROL</text>
</g>
<g id="TEXT_284" style="&st11;">
<text x="13.429485" y="-7.5286424">BRAKE</text>
</g>
<g id="TEXT_285" style="&st11;">
<text x="13.429682" y="-7.6743424">W/ ACTIVE</text>
</g>
<g id="Lwpline_133">
<path d="M13.416355 -6.8677339 L13.416355 -7.3244452 " style="&st2;"/>
</g>
<g id="Lwpline_233">
<path d="M13.437883 -9.7849502 L13.437883 -10.524638 " style="&st2;"/>
</g>
<g id="TEXT_348" style="&st5;">
<text x="0.29291805" y="-17.304083">(W/ ACTIVE</text>
</g>
<g id="TEXT_349" style="&st5;">
<text x="0.29291805" y="-17.154083">BRAKE CONTROL)</text>
</g>
<g id="TEXT_350" style="&st5;">
<text x="0.32182794" y="-14.574143">BRAKE CONTROL)</text>
</g>
<g id="TEXT_351" style="&st5;">
<text x="0.32182794" y="-14.724143">(W/ ACTIVE</text>
</g>
<g id="TEXT_352" style="&st11;">
<text x="13.429485" y="-5.6987665">BRAKE</text>
</g>
<g id="TEXT_353" style="&st11;">
<text x="13.426652" y="-5.5530665">CONTROL</text>
</g>
<g id="TEXT_354" style="&st11;">
<text x="13.429682" y="-5.8444665">W/ ACTIVE</text>
</g>
<g id="TEXT_355" style="&st11;">
<text x="7.9193802" y="-0.93053543">(W/ ACTIVE</text>
</g>
<g id="TEXT_356" style="&st11;">
<text x="7.9101895" y="-0.78053543">BRAKE CONTROL)</text>
</g>
<g id="TEXT_357" style="&st11;">
<text x="6.3193826" y="-0.93053543">(W/ ACTIVE</text>
</g>
<g id="TEXT_358" style="&st11;">
<text x="6.3101918" y="-0.78053543">BRAKE CONTROL)</text>
</g>
</g>
<g id="Layer_1_REF" style="&Layer_1_REF;">
<g id="TEXT_178" style="&st5;">
<text x="4.5175756" y="-7.0403744">COMPUTER DATA</text>
</g>
<g id="TEXT_179" style="&st5;">
<text x="4.5175757" y="-6.8903744">LINES SYSTEM</text>
</g>
<g id="TEXT_338" style="&st5;">
<text x="4.5175756" y="-10.040374">COMPUTER DATA</text>
</g>
<g id="TEXT_339" style="&st5;">
<text x="4.5175757" y="-9.8903744">LINES SYSTEM</text>
</g>
<g id="TEXT_343" style="&st5;">
<text x="4.5175756" y="-8.2403744">COMPUTER DATA</text>
</g>
<g id="TEXT_344" style="&st5;">
<text x="4.5175757" y="-8.0903744">LINES SYSTEM</text>
</g>
<g id="TEXT_345" style="&st11;">
<text x="12.003378" y="-5.4629651">COMPUTER</text>
</g>
<g id="TEXT_346" style="&st11;">
<text x="12.003907" y="-5.3129651">DATA LINES</text>
</g>
<g id="TEXT_347" style="&st11;">
<text x="12.011051" y="-5.1672651">SYSTEM</text>
</g>
</g>
<g id="Layer_1_GROUND" style="&Layer_1_GROUND;">
<g id="TEXT_180" style="&st5;">
<text x="5.3470036" y="-9.5439776">G115</text>
</g>
</g>
<g id="Layer_1_SPLICE" style="&Layer_1_SPLICE;">
<g id="TEXT_267" style="&st3;">
<text x="10.307308" y="-8.2502785">J107</text>
</g>
<g id="TEXT_268" style="&st11;">
<text x="12.598728" y="-8.4742571">J216</text>
</g>
<g id="TEXT_340" style="&st11;">
<text x="4.2037585" y="-9.6828719">J125</text>
</g>
<g id="TEXT_341" style="&st11;">
<text x="4.2004563" y="-9.8285719">(5.3L)</text>
</g>
</g>
<g id="Layer_1_COMPLOC" style="&Layer_1_COMPLOC;">
<g id="TEXT_309" style="&st3;">
<text x="5.107115" y="-16.869506">STRUT TOWER)</text>
</g>
<g id="TEXT_310" style="&st3;">
<text x="5.1071148" y="-17.019506">(RIGHT FRONT</text>
</g>
<g id="TEXT_311" style="&st5;">
<text x="13.454285" y="-16.852308">STRUT TOWER)</text>
</g>
<g id="TEXT_312" style="&st5;">
<text x="13.454285" y="-17.002308">(RIGHT FRONT</text>
</g>
<g id="TEXT_313" style="&st5;">
<text x="0.29291805" y="-17.454083">WHEEL HUB ASSEMBLY)</text>
</g>
<g id="TEXT_314" style="&st5;">
<text x="0.29291805" y="-17.604083">(RIGHT FRONT</text>
</g>
<g id="TEXT_315" style="&st5;">
<text x="0.32182794" y="-15.024143">(RIGHT REAR</text>
</g>
<g id="TEXT_316" style="&st5;">
<text x="0.32182794" y="-14.874143">WHEEL HUB ASSEMBLY)</text>
</g>
<g id="TEXT_317" style="&st5;">
<text x="0.14974563" y="-3.396249">PRESSURE MODULATOR VALVE)</text>
</g>
<g id="TEXT_318" style="&st5;">
<text x="0.14974563" y="-3.546249">(INTEGRAL TO BRAKE</text>
</g>
<g id="TEXT_319" style="&st11;">
<text x="9.3689258" y="-7.7307345">HARNESS, 6 CM FROM</text>
</g>
<g id="TEXT_320" style="&st11;">
<text x="9.3703863" y="-7.8807345">(OFF-ENGINE WIRING</text>
</g>
<g id="TEXT_321" style="&st11;">
<text x="9.3680316" y="-7.2807345">PRESSURE SENSOR)</text>
</g>
<g id="TEXT_322" style="&st11;">
<text x="9.3755295" y="-7.5807345">BREAKOUT TO</text>
</g>
<g id="TEXT_323" style="&st11;">
<text x="9.3773423" y="-7.4307345">BRAKE FLUID</text>
</g>
<g id="Lwpline_232">
<path d="M9.9113912 -8.2939648 L9.3680559 -8.2939648 L9.3680559 -8.0283646 " style="&st2;"/>
</g>
<g id="TEXT_324" style="&st3;">
<text x="12.435254" y="-9.5480899">(I/P WIRING HARNESS,</text>
</g>
<g id="TEXT_325" style="&st3;">
<text x="12.435254" y="-9.2480899">THROUGH TO BRAKE</text>
</g>
<g id="TEXT_326" style="&st3;">
<text x="12.435254" y="-9.3980899">14 CM FROM PASS-</text>
</g>
<g id="TEXT_327" style="&st3;">
<text x="12.435254" y="-9.0980899">FLUID LEVEL SWITCH)</text>
</g>
<g id="Lwpline_234">
<path d="M12.53604 -9.5632204 L12.617027 -9.5632204 L12.617027 -8.6564182 " style="&st2;"/>
</g>
<g id="TEXT_328" style="&st5;">
<text x="5.8446604" y="-9.8314589">(3.8L: LEFT REAR OF ENGINE)</text>
</g>
<g id="TEXT_329" style="&st5;">
<text x="5.8446603" y="-9.9814589">(5.3L: LEFT SIDE OF ENGINE)</text>
</g>
<g id="TEXT_330" style="&st11;">
<text x="6.3159801" y="-0.63053543">(LEFT REAR</text>
</g>
<g id="TEXT_331" style="&st11;">
<text x="6.3213313" y="-0.48053543">WHEEL HUB</text>
</g>
<g id="TEXT_332" style="&st11;">
<text x="6.3215842" y="-0.33053543">ASSEMBLY)</text>
</g>
<g id="TEXT_333" style="&st11;">
<text x="7.9150309" y="-0.63053543">(LEFT FRONT</text>
</g>
<g id="TEXT_334" style="&st11;">
<text x="7.9215824" y="-0.33053543">ASSEMBLY)</text>
</g>
<g id="TEXT_335" style="&st11;">
<text x="7.9213293" y="-0.48053543">WHEEL HUB</text>
</g>
<g id="TEXT_336" style="&st11;">
<text x="12.384257" y="-0.24302902">STEERING COLUMN)</text>
</g>
<g id="TEXT_337" style="&st11;">
<text x="12.395286" y="-0.39302902">(BASE OF</text>
</g>
<g id="Lwpline_238">
<path d="M5.830065 -9.7879497 L5.7196081 -9.6862265 " style="&st2;"/>
</g>
</g>
<g id="Layer_1_0" style="&Layer_1_0;">
<g id="INSERT_5">
<g transform="matrix(-1 -1.2246064e-016 1.2246064e-016 -1 10.742759 -1.6138288)">
<use style="&st16;" xlink:href="#SP2_BLK_1_1C"/>
</g>
</g>
<g id="Lwpline_251">
<path d="M10.497276 -1.6138288 L10.742759 -1.6138288 " style="&st2;"/>
</g>
<polygon id="SOLID_9" style="&st25;" points="10.497294 -1.6464026 10.440858 -1.6138594 10.497258 -1.581255 10.497258 -1.581255"/>
<g id="Lwpline_252">
<path d="M10.398896 -1.4317581 L10.358201 -1.4533382 L10.43887 -1.4957344 L10.358619 -1.5377485 L10.43887 -1.5798367 L10.39887 -1.6013427 L10.358175 -1.6229229 L10.438845 -1.6653191 L10.358594 -1.7073332 L10.438845 -1.7494214 L10.398845 -1.7709274 " style="&st2;"/>
</g>
<ellipse cx="3.1640632" cy="-10.399695" id="CIRCLE_37" rx="0.070387889" ry="0.070387889" style="&st24;"/>
<ellipse cx="3.1640632" cy="-10.399695" id="CIRCLE_38" rx="0.071387889" ry="0.071387889" style="&st24;"/>
<ellipse cx="3.1640632" cy="-10.399695" id="CIRCLE_39" rx="0.072387889" ry="0.072387889" style="&st24;"/>
<g id="TEXT_359" style="&st11;">
<text x="3.1593832" y="-10.356563">1</text>
</g>
<g id="TEXT_360" style="&st11;">
<text x="3.1860227" y="-9.9647729">2</text>
</g>
<ellipse cx="3.1875142" cy="-10.007905" id="CIRCLE_40" rx="0.072387889" ry="0.072387889" style="&st24;"/>
<ellipse cx="3.1875142" cy="-10.007905" id="CIRCLE_41" rx="0.071387889" ry="0.071387889" style="&st24;"/>
<ellipse cx="3.1875142" cy="-10.007905" id="CIRCLE_42" rx="0.070387889" ry="0.070387889" style="&st24;"/>
<g id="TEXT_361" style="&st11;">
<text x="4.2646329" y="-11.249555">2</text>
</g>
<ellipse cx="4.2661244" cy="-11.292687" id="CIRCLE_43" rx="0.072387889" ry="0.072387889" style="&st24;"/>
<ellipse cx="4.2661244" cy="-11.292687" id="CIRCLE_44" rx="0.071387889" ry="0.071387889" style="&st24;"/>
<ellipse cx="4.2661244" cy="-11.292687" id="CIRCLE_45" rx="0.070387889" ry="0.070387889" style="&st24;"/>
<ellipse cx="0.60944101" cy="-10.121238" id="CIRCLE_46" rx="0.070387889" ry="0.070387889" style="&st24;"/>
<ellipse cx="0.60944101" cy="-10.121238" id="CIRCLE_47" rx="0.071387889" ry="0.071387889" style="&st24;"/>
<ellipse cx="0.60944101" cy="-10.121238" id="CIRCLE_48" rx="0.072387889" ry="0.072387889" style="&st24;"/>
<g id="TEXT_362" style="&st11;">
<text x="0.60476095" y="-10.078106">1</text>
</g>
<g id="Lwpline_253">
<path d="M13.437883 -6.0947623 L13.437883 -6.4947623 " style="&st2;"/>
</g>
<g id="Lwpline_254">
<path d="M4.179 -9.6 A0.021 0.021 0 0 0 4.221 -9.6 A0.021 0.021 0 0 0 4.179 -9.6 " style="&st44;"/>
</g>
<g id="TEXT_363" style="&st11;">
<text x="1.2267418" y="-10.243734">2</text>
</g>
<ellipse cx="1.2282333" cy="-10.286865" id="CIRCLE_49" rx="0.072387889" ry="0.072387889" style="&st24;"/>
<ellipse cx="1.2282333" cy="-10.286865" id="CIRCLE_50" rx="0.071387889" ry="0.071387889" style="&st24;"/>
<ellipse cx="1.2282333" cy="-10.286865" id="CIRCLE_51" rx="0.070387889" ry="0.070387889" style="&st24;"/>
<ellipse cx="5.4856944" cy="-12.205485" id="CIRCLE_52" rx="0.070387889" ry="0.070387889" style="&st24;"/>
<ellipse cx="5.4856944" cy="-12.205485" id="CIRCLE_53" rx="0.071387889" ry="0.071387889" style="&st24;"/>
<ellipse cx="5.4856944" cy="-12.205485" id="CIRCLE_54" rx="0.072387889" ry="0.072387889" style="&st24;"/>
<g id="TEXT_364" style="&st11;">
<text x="5.4810143" y="-12.162353">1</text>
</g>
<g id="Lwpline_255">
<path d="M13.437883 -7.9246382 L13.437883 -8.3246382 " style="&st2;"/>
</g>
<g id="Lwpline_256">
<path d="M11.437883 -11.924638 L11.437883 -12.324638 " style="&st2;"/>
</g>
<g id="Lwpline_257">
<path d="M12.579 -8.4 A0.021 0.021 0 0 0 12.621 -8.4 A0.021 0.021 0 0 0 12.579 -8.4 " style="&st44;"/>
</g>
<g id="TEXT_365" style="&st11;">
<text x="5.4849588" y="-11.920517">2</text>
</g>
<ellipse cx="5.4864503" cy="-11.963649" id="CIRCLE_55" rx="0.072387889" ry="0.072387889" style="&st24;"/>
<ellipse cx="5.4864503" cy="-11.963649" id="CIRCLE_56" rx="0.071387889" ry="0.071387889" style="&st24;"/>
<ellipse cx="5.4864503" cy="-11.963649" id="CIRCLE_57" rx="0.070387889" ry="0.070387889" style="&st24;"/>
<g id="Lwpline_258">
<path d="M10.379 -8.4 A0.021 0.021 0 0 0 10.421 -8.4 A0.021 0.021 0 0 0 10.379 -8.4 " style="&st44;"/>
</g>
<g id="Lwpline_259">
<path d="M10.545981 -16.528598 L10.6 -16.474579 L10.654019 -16.528598 " style="&st2;"/>
</g>
<g id="Lwpline_260">
<path d="M5.945981 -16.528598 L6 -16.474579 L6.054019 -16.528598 " style="&st2;"/>
</g>
<g id="INSERT_6">
<g transform="matrix(-1 -1.2246064e-016 1.2246064e-016 -1 0.80005056 -2.1238821)">
<use style="&st16;" xlink:href="#S8_BLK_1_149D"/>
</g>
</g>
<g id="Lwpline_267">
<path d="M1.1397674 -2.6 L0.8 -2.6001249 L0.8 -2.4613661 " style="&st2;"/>
</g>
<g id="Lwpline_268">
<path d="M0.80005056 -2.1238821 L0.80005056 -2 L1.1397674 -2 " style="&st2;"/>
</g>
<g id="Lwpline_269">
<path d="M0.50977177 -1.8791527 L1.1397674 -1.8791527 L1.1397674 -2.7042014 L0.50977177 -2.7042014 L0.50977177 -1.8791527 " style="&st2;"/>
</g>
<g id="TEXT_366" style="&st46;">
<text x="2.813002" y="-4.4395441">M</text>
</g>
<ellipse cx="2.8152282" cy="-4.5002782" id="CIRCLE_58" rx="0.11241557" ry="0.11241557" style="&st24;"/>
<ellipse cx="2.8152282" cy="-4.5002782" id="CIRCLE_59" rx="0.11341557" ry="0.11341557" style="&st24;"/>
<ellipse cx="2.8152282" cy="-4.5002782" id="CIRCLE_60" rx="0.11441557" ry="0.11441557" style="&st24;"/>
<ellipse cx="2.8152282" cy="-4.5002782" id="CIRCLE_61" rx="0.11541557" ry="0.11541557" style="&st24;"/>
<ellipse cx="2.8152282" cy="-4.5002782" id="CIRCLE_62" rx="0.11641557" ry="0.11641557" style="&st24;"/>
<ellipse cx="2.8152282" cy="-4.5002782" id="CIRCLE_63" rx="0.11741557" ry="0.11741557" style="&st24;"/>
<ellipse cx="2.8152282" cy="-4.5002782" id="CIRCLE_64" rx="0.11841557" ry="0.11841557" style="&st24;"/>
<ellipse cx="2.8152282" cy="-4.5002782" id="CIRCLE_65" rx="0.11941557" ry="0.11941557" style="&st24;"/>
<ellipse cx="2.8152282" cy="-4.5002782" id="CIRCLE_66" rx="0.12041557" ry="0.12041557" style="&st24;"/>
<ellipse cx="2.8152282" cy="-4.5002782" id="CIRCLE_67" rx="0.12141557" ry="0.12141557" style="&st24;"/>
<g id="Lwpline_270">
<path d="M2.8799294 -4.4011874 L2.8799294 -4.3363776 L2.7505271 -4.3363776 L2.7505271 -4.4011874 " style="&st2;"/>
</g>
<g id="Lwpline_271">
<path d="M2.7505271 -4.5982547 L2.7505271 -4.6630645 L2.8799294 -4.6630645 L2.8799294 -4.5982547 " style="&st2;"/>
</g>
<ellipse cx="2.8152282" cy="-4.5002782" id="CIRCLE_68" rx="0.12241557" ry="0.12241557" style="&st24;"/>
<ellipse cx="4.2864058" cy="-10.898702" id="CIRCLE_69" rx="0.070387889" ry="0.070387889" style="&st24;"/>
<ellipse cx="4.2864058" cy="-10.898702" id="CIRCLE_70" rx="0.071387889" ry="0.071387889" style="&st24;"/>
<ellipse cx="4.2864058" cy="-10.898702" id="CIRCLE_71" rx="0.072387889" ry="0.072387889" style="&st24;"/>
<g id="TEXT_367" style="&st11;">
<text x="4.2817257" y="-10.85557">1</text>
</g>
<g id="Lwpline_272">
<path d="M5.2 -9.579 A0.021 0.021 0 0 0 5.2 -9.621 A0.021 0.021 0 0 0 5.2 -9.579 " style="&st44;"/>
</g>
<g id="Lwpline_273">
<path d="M5.2731037 -9.5503445 L5.2731037 -9.6496555 " style="&st2;"/>
</g>
<g id="Lwpline_275">
<path d="M5.3062073 -9.5834482 L5.3062073 -9.6165518 " style="&st2;"/>
</g>
<g id="Lwpline_276">
<path d="M5.2 -8.979 A0.021 0.021 0 0 0 5.2 -9.021 A0.021 0.021 0 0 0 5.2 -8.979 " style="&st44;"/>
</g>
<g id="Lwpline_277">
<path d="M5.2731037 -8.9503445 L5.2731037 -9.0496555 " style="&st2;"/>
</g>
<g id="Lwpline_279">
<path d="M5.3062073 -8.9834482 L5.3062073 -9.0165518 " style="&st2;"/>
</g>
<g id="Lwpline_280">
<path d="M12.545981 -16.528598 L12.6 -16.474579 L12.654019 -16.528598 " style="&st2;"/>
</g>
<g id="INSERT_7">
<g transform="matrix(1 0 0 1 12.599785 -16.730987)">
<use style="&st16;" xlink:href="#SP2_BLK_1_1C"/>
</g>
</g>
<g id="INSERT_8">
<g transform="matrix(1 0 0 1 12.599919 -16.965337)">
<use style="&st16;" xlink:href="#SP2_BLK_1_1C"/>
</g>
</g>
<g id="Lwpline_281">
<path d="M12.599949 -17.017734 L12.599919 -16.965337 " style="&st2;"/>
</g>
<g id="Lwpline_282">
<path d="M12.599785 -16.730987 L12.599755 -16.67859 " style="&st2;"/>
</g>
<g id="Lwpline_283">
<path d="M12.599919 -16.965337 A0.066250621 0.066250621 0 0 1 12.599852 -16.848162 A0.066250621 0.066250621 0 0 0 12.599785 -16.730987 " style="&st2;"/>
</g>
<g id="INSERT_9">
<g transform="matrix(1 0 0 1 9.9997854 -16.730987)">
<use style="&st16;" xlink:href="#SP2_BLK_1_1C"/>
</g>
</g>
<g id="INSERT_10">
<g transform="matrix(1 0 0 1 9.9999194 -16.965337)">
<use style="&st16;" xlink:href="#SP2_BLK_1_1C"/>
</g>
</g>
<g id="Lwpline_284">
<path d="M9.9999494 -17.017734 L9.9999194 -16.965337 " style="&st2;"/>
</g>
<g id="Lwpline_285">
<path d="M9.9997854 -16.730987 L9.9997554 -16.67859 " style="&st2;"/>
</g>
<g id="Lwpline_286">
<path d="M9.9999194 -16.965337 A0.066250621 0.066250621 0 0 1 9.9998524 -16.848162 A0.066250621 0.066250621 0 0 0 9.9997854 -16.730987 " style="&st2;"/>
</g>
<g id="Lwpline_287">
<path d="M9.945981 -16.528598 L10 -16.474579 L10.054019 -16.528598 " style="&st2;"/>
</g>
<g id="Lwpline_288">
<path d="M5.345981 -16.528598 L5.4 -16.474579 L5.454019 -16.528598 " style="&st2;"/>
</g>
<g id="INSERT_11">
<g transform="matrix(1 0 0 1 5.9997854 -16.730987)">
<use style="&st16;" xlink:href="#SP2_BLK_1_1C"/>
</g>
</g>
<g id="INSERT_12">
<g transform="matrix(1 0 0 1 5.9999194 -16.965337)">
<use style="&st16;" xlink:href="#SP2_BLK_1_1C"/>
</g>
</g>
<g id="Lwpline_289">
<path d="M5.9999494 -17.017734 L5.9999194 -16.965337 " style="&st2;"/>
</g>
<g id="Lwpline_290">
<path d="M5.9997854 -16.730987 L5.9997554 -16.67859 " style="&st2;"/>
</g>
<g id="Lwpline_291">
<path d="M5.9999194 -16.965337 A0.066250621 0.066250621 0 0 1 5.9998524 -16.848162 A0.066250621 0.066250621 0 0 0 5.9997854 -16.730987 " style="&st2;"/>
</g>
<g id="Lwpline_292">
<path d="M7.945981 -16.528598 L8 -16.474579 L8.054019 -16.528598 " style="&st2;"/>
</g>
<g id="INSERT_13">
<g transform="matrix(1 0 0 1 7.9997854 -16.730987)">
<use style="&st16;" xlink:href="#SP2_BLK_1_1C"/>
</g>
</g>
<g id="INSERT_14">
<g transform="matrix(1 0 0 1 7.9999194 -16.965337)">
<use style="&st16;" xlink:href="#SP2_BLK_1_1C"/>
</g>
</g>
<g id="Lwpline_293">
<path d="M7.9999494 -17.017734 L7.9999194 -16.965337 " style="&st2;"/>
</g>
<g id="Lwpline_294">
<path d="M7.9997854 -16.730987 L7.9997554 -16.67859 " style="&st2;"/>
</g>
<g id="Lwpline_295">
<path d="M7.9999194 -16.965337 A0.066250621 0.066250621 0 0 1 7.9998524 -16.848162 A0.066250621 0.066250621 0 0 0 7.9997854 -16.730987 " style="&st2;"/>
</g>
<g id="Lwpline_296">
<path d="M11.745981 -16.528598 L11.8 -16.474579 L11.854019 -16.528598 " style="&st2;"/>
</g>
<g id="INSERT_15">
<g transform="matrix(1 0 0 1 11.799785 -16.730987)">
<use style="&st16;" xlink:href="#SP2_BLK_1_1C"/>
</g>
</g>
<g id="INSERT_16">
<g transform="matrix(1 0 0 1 11.799919 -16.965337)">
<use style="&st16;" xlink:href="#SP2_BLK_1_1C"/>
</g>
</g>
<g id="Lwpline_297">
<path d="M11.799949 -17.017734 L11.799919 -16.965337 " style="&st2;"/>
</g>
<g id="Lwpline_298">
<path d="M11.799785 -16.730987 L11.799755 -16.67859 " style="&st2;"/>
</g>
<g id="Lwpline_299">
<path d="M11.799919 -16.965337 A0.066250621 0.066250621 0 0 1 11.799852 -16.848162 A0.066250621 0.066250621 0 0 0 11.799785 -16.730987 " style="&st2;"/>
</g>
<g id="INSERT_17">
<g transform="matrix(1 0 0 1 7.1997854 -16.730987)">
<use style="&st16;" xlink:href="#SP2_BLK_1_1C"/>
</g>
</g>
<g id="INSERT_18">
<g transform="matrix(1 0 0 1 7.1999194 -16.965337)">
<use style="&st16;" xlink:href="#SP2_BLK_1_1C"/>
</g>
</g>
<g id="Lwpline_300">
<path d="M7.1999494 -17.017734 L7.1999194 -16.965337 " style="&st2;"/>
</g>
<g id="Lwpline_301">
<path d="M7.1997854 -16.730987 L7.1997554 -16.67859 " style="&st2;"/>
</g>
<g id="Lwpline_302">
<path d="M7.1999194 -16.965337 A0.066250621 0.066250621 0 0 1 7.1998524 -16.848162 A0.066250621 0.066250621 0 0 0 7.1997854 -16.730987 " style="&st2;"/>
</g>
<g id="Lwpline_303">
<path d="M7.145981 -16.528598 L7.2 -16.474579 L7.254019 -16.528598 " style="&st2;"/>
</g>
<g id="Lwpline_304">
<path d="M2.5664 -12.4672 L2.6 -12.4336 L2.6 -12.3664 L2.5664 -12.3328 " style="&st22;"/>
</g>
<g id="Lwpline_305">
<path d="M2.5664 -12.2672 L2.6 -12.2336 L2.6 -12.1664 L2.5664 -12.1328 " style="&st22;"/>
</g>
<g id="Lwpline_306">
<path d="M2.5664 -12.0672 L2.6 -12.0336 L2.6 -11.9664 L2.5664 -11.9328 " style="&st22;"/>
</g>
<g id="Lwpline_307">
<path d="M2.5664 -11.8672 L2.6 -11.8336 L2.6 -11.7664 L2.5664 -11.7328 " style="&st22;"/>
</g>
<g id="Lwpline_308">
<path d="M2.5664 -11.6672 L2.6 -11.6336 L2.6 -11.5664 L2.5664 -11.5328 " style="&st22;"/>
</g>
<g id="Lwpline_309">
<path d="M2.5664 -11.4672 L2.6 -11.4336 L2.6 -11.3664 L2.5664 -11.3328 " style="&st22;"/>
</g>
<g id="Lwpline_310">
<path d="M2.5664 -11.2672 L2.6 -11.2336 L2.6 -11.1664 L2.5664 -11.1328 " style="&st22;"/>
</g>
<g id="Lwpline_311">
<path d="M2.5664 -11.0672 L2.6 -11.0336 L2.6 -10.9664 L2.5664 -10.9328 " style="&st22;"/>
</g>
<g id="Lwpline_312">
<path d="M2.5664 -10.8672 L2.6 -10.8336 L2.6 -10.7664 L2.5664 -10.7328 " style="&st22;"/>
</g>
<g id="Lwpline_313">
<path d="M2.5664 -10.6672 L2.6 -10.6336 L2.6 -10.5664 L2.5664 -10.5328 " style="&st22;"/>
</g>
<g id="Lwpline_314">
<path d="M2.5664 -10.2672 L2.6 -10.2336 L2.6 -10.1664 L2.5664 -10.1328 " style="&st22;"/>
</g>
<g id="Lwpline_315">
<path d="M2.5664 -9.6672 L2.6 -9.6336 L2.6 -9.5664 L2.5664 -9.5328 " style="&st22;"/>
</g>
<g id="Lwpline_316">
<path d="M2.5664 -9.4672 L2.6 -9.4336 L2.6 -9.3664 L2.5664 -9.3328 " style="&st22;"/>
</g>
<g id="Lwpline_317">
<path d="M2.5664 -9.2672 L2.6 -9.2336 L2.6 -9.1664 L2.5664 -9.1328 " style="&st22;"/>
</g>
<g id="Lwpline_318">
<path d="M2.5664 -9.0672 L2.6 -9.0336 L2.6 -8.9664 L2.5664 -8.9328 " style="&st22;"/>
</g>
<g id="Lwpline_319">
<path d="M2.5664 -8.8672 L2.6 -8.8336 L2.6 -8.7664 L2.5664 -8.7328 " style="&st22;"/>
</g>
<g id="Lwpline_320">
<path d="M2.5664 -8.6672 L2.6 -8.6336 L2.6 -8.5664 L2.5664 -8.5328 " style="&st22;"/>
</g>
<g id="Lwpline_321">
<path d="M2.5664 -8.4672 L2.6 -8.4336 L2.6 -8.3664 L2.5664 -8.3328 " style="&st22;"/>
</g>
<g id="Lwpline_322">
<path d="M2.5664 -8.2672 L2.6 -8.2336 L2.6 -8.1664 L2.5664 -8.1328 " style="&st22;"/>
</g>
<g id="Lwpline_323">
<path d="M2.5664 -8.0672 L2.6 -8.0336 L2.6 -7.9664 L2.5664 -7.9328 " style="&st22;"/>
</g>
<g id="Lwpline_324">
<path d="M2.5664 -7.8672 L2.6 -7.8336 L2.6 -7.7664 L2.5664 -7.7328 " style="&st22;"/>
</g>
<g id="Lwpline_325">
<path d="M2.5664 -7.6672 L2.6 -7.6336 L2.6 -7.5664 L2.5664 -7.5328 " style="&st22;"/>
</g>
<g id="Lwpline_326">
<path d="M2.5664 -7.4672 L2.6 -7.4336 L2.6 -7.3664 L2.5664 -7.3328 " style="&st22;"/>
</g>
<g id="Lwpline_327">
<path d="M2.5664 -7.2672 L2.6 -7.2336 L2.6 -7.1664 L2.5664 -7.1328 " style="&st22;"/>
</g>
<g id="Lwpline_328">
<path d="M2.5664 -7.0672 L2.6 -7.0336 L2.6 -6.9664 L2.5664 -6.9328 " style="&st22;"/>
</g>
<g id="Lwpline_329">
<path d="M2.5664 -6.8672 L2.6 -6.8336 L2.6 -6.7664 L2.5664 -6.7328 " style="&st22;"/>
</g>
<g id="Lwpline_330">
<path d="M2.5664 -6.6672 L2.6 -6.6336 L2.6 -6.5664 L2.5664 -6.5328 " style="&st22;"/>
</g>
<g id="Lwpline_331">
<path d="M2.5664 -6.4672 L2.6 -6.4336 L2.6 -6.3664 L2.5664 -6.3328 " style="&st22;"/>
</g>
<g id="Lwpline_332">
<path d="M2.5664 -6.2672 L2.6 -6.2336 L2.6 -6.1664 L2.5664 -6.1328 " style="&st22;"/>
</g>
<g id="Lwpline_333">
<path d="M2.5664 -6.0672 L2.6 -6.0336 L2.6 -5.9664 L2.5664 -5.9328 " style="&st22;"/>
</g>
<g id="Lwpline_334">
<path d="M2.5664 -5.6672 L2.6 -5.6336 L2.6 -5.5664 L2.5664 -5.5328 " style="&st22;"/>
</g>
<g id="Lwpline_335">
<path d="M2.5664 -5.4672 L2.6 -5.4336 L2.6 -5.3664 L2.5664 -5.3328 " style="&st22;"/>
</g>
<polygon id="SOLID_10" style="&st25;" points="4.3999638 -6.9348523 4.5128365 -6.9999387 4.4000362 -7.0651477 4.4000362 -7.0651477"/>
<g id="Lwpline_336">
<path d="M2.470981 -9.545981 L2.525 -9.6 L2.470981 -9.654019 " style="&st2;"/>
</g>
<g id="Lwpline_337">
<path d="M2.470981 -5.545981 L2.525 -5.6 L2.470981 -5.654019 " style="&st2;"/>
</g>
<g id="Lwpline_338">
<path d="M12.5328 -3.3664 L12.5664 -3.4 L12.6336 -3.4 L12.6672 -3.3664 " style="&st22;"/>
</g>
<g id="Lwpline_339">
<path d="M11.7328 -3.3664 L11.7664 -3.4 L11.8336 -3.4 L11.8672 -3.3664 " style="&st22;"/>
</g>
<g id="Lwpline_340">
<path d="M12.9328 -3.3664 L12.9664 -3.4 L13.0336 -3.4 L13.0672 -3.3664 " style="&st22;"/>
</g>
<g id="Lwpline_341">
<path d="M12.1328 -3.3664 L12.1664 -3.4 L12.2336 -3.4 L12.2672 -3.3664 " style="&st22;"/>
</g>
<polygon id="SOLID_11" style="&st25;" points="13.538649 -9.0291805 13.59973 -9.0065283 13.588809 -9.0707527 13.588809 -9.0707527"/>
<polygon id="SOLID_12" style="&st25;" points="13.383781 -8.8677519 13.416324 -8.8113159 13.448929 -8.8677159 13.448929 -8.8677159"/>
<polygon id="SOLID_13" style="&st25;" points="13.383781 -6.8677519 13.416324 -6.8113159 13.448929 -6.8677159 13.448929 -6.8677159"/>
<polygon id="SOLID_14" style="&st25;" points="9.9113732 -8.2613908 9.9678092 -8.2939338 9.9114092 -8.3265388 9.9114092 -8.3265388"/>
<polygon id="SOLID_15" style="&st25;" points="13.470457 -10.52462 13.437914 -10.581056 13.405309 -10.524656 13.405309 -10.524656"/>
<polygon id="SOLID_16" style="&st25;" points="12.584453 -8.6564362 12.616996 -8.6000002 12.649601 -8.6564002 12.649601 -8.6564002"/>
<g id="Lwpline_342">
<path d="M11.8672 -16.4336 L11.8336 -16.4 L11.7664 -16.4 L11.7328 -16.4336 " style="&st22;"/>
</g>
<g id="Lwpline_343">
<path d="M10.0672 -16.4336 L10.0336 -16.4 L9.9664 -16.4 L9.9328 -16.4336 " style="&st22;"/>
</g>
<g id="Lwpline_344">
<path d="M12.6672 -16.4336 L12.6336 -16.4 L12.5664 -16.4 L12.5328 -16.4336 " style="&st22;"/>
</g>
<g id="Lwpline_345">
<path d="M10.6672 -16.4336 L10.6336 -16.4 L10.5664 -16.4 L10.5328 -16.4336 " style="&st22;"/>
</g>
<g id="Lwpline_346">
<path d="M7.2672 -16.4336 L7.2336 -16.4 L7.1664 -16.4 L7.1328 -16.4336 " style="&st22;"/>
</g>
<g id="Lwpline_347">
<path d="M8.0672 -16.4336 L8.0336 -16.4 L7.9664 -16.4 L7.9328 -16.4336 " style="&st22;"/>
</g>
<g id="Lwpline_348">
<path d="M5.4672 -16.4336 L5.4336 -16.4 L5.3664 -16.4 L5.3328 -16.4336 " style="&st22;"/>
</g>
<g id="Lwpline_349">
<path d="M6.0672 -16.4336 L6.0336 -16.4 L5.9664 -16.4 L5.9328 -16.4336 " style="&st22;"/>
</g>
<polygon id="SOLID_17" style="&st25;" points="4.3999638 -9.9348523 4.5128365 -9.9999387 4.4000362 -10.065148 4.4000362 -10.065148"/>
<polygon id="SOLID_18" style="&st25;" points="5.6975101 -9.7101586 5.678158 -9.6479527 5.7417061 -9.6622944 5.7417061 -9.6622944"/>
<polygon id="SOLID_19" style="&st25;" points="4.3999638 -8.1348523 4.5128365 -8.1999387 4.4000362 -8.2651477 4.4000362 -8.2651477"/>
<polygon id="SOLID_20" style="&st25;" points="11.865148 -4.9999638 11.800061 -5.1128365 11.734852 -5.0000362 11.734852 -5.0000362"/>
<polygon id="SOLID_21" style="&st25;" points="12.265148 -4.9999638 12.200061 -5.1128365 12.134852 -5.0000362 12.134852 -5.0000362"/>
<g id="Lwpline_350">
<path d="M9.9328 -1.9664 L9.9664 -2 L10.0336 -2 L10.0672 -1.9664 " style="&st22;"/>
</g>
<g id="Lwpline_351">
<path d="M10.054019 -1.8686827 L10 -1.9227017 L9.945981 -1.8686827 " style="&st2;"/>
</g>
<g id="Lwpline_352">
<path d="M10.3328 -1.9664 L10.3664 -2 L10.4336 -2 L10.4672 -1.9664 " style="&st22;"/>
</g>
<g id="Lwpline_353">
<path d="M10.454019 -1.8686827 L10.4 -1.9227017 L10.345981 -1.8686827 " style="&st2;"/>
</g>
<g id="Lwpline_354">
<path d="M10.7328 -1.9664 L10.7664 -2 L10.8336 -2 L10.8672 -1.9664 " style="&st22;"/>
</g>
<g id="Lwpline_355">
<path d="M10.854019 -1.8686827 L10.8 -1.9227017 L10.745981 -1.8686827 " style="&st2;"/>
</g>
<polygon id="SOLID_22" style="&st25;" points="13.470457 -6.4947443 13.437914 -6.5511803 13.405309 -6.4947803 13.405309 -6.4947803"/>
<polygon id="SOLID_23" style="&st25;" points="13.470457 -8.3246202 13.437914 -8.3810562 13.405309 -8.3246562 13.405309 -8.3246562"/>
<polygon id="SOLID_24" style="&st25;" points="11.470457 -12.32462 11.437914 -12.381056 11.405309 -12.324656 11.405309 -12.324656"/>
<g id="Lwpline_356">
<path d="M1.0857484 -2.545981 L1.1397674 -2.6 L1.0857484 -2.654019 " style="&st2;"/>
</g>
<g id="Lwpline_357">
<path d="M1.0857484 -1.945981 L1.1397674 -2 L1.0857484 -2.054019 " style="&st2;"/>
</g>
<g id="Lwpline_358">
<path d="M1.1664 -2.6672 L1.2 -2.6336 L1.2 -2.5664 L1.1664 -2.5328 " style="&st22;"/>
</g>
<g id="Lwpline_359">
<path d="M1.1664 -2.0672 L1.2 -2.0336 L1.2 -1.9664 L1.1664 -1.9328 " style="&st22;"/>
</g>
</g>
</g>
</svg>
